<?xml version="1.0" standalone="no"?>
<!DOCTYPE svg PUBLIC "-//W3C//DTD SVG 1.1//EN" "http://www.w3.org/Graphics/SVG/1.1/DTD/svg11.dtd" >
<svg xmlns="http://www.w3.org/2000/svg">
<metadata></metadata>
<defs>
<font id="martellight" horiz-adv-x="1134" >
<font-face units-per-em="2048" ascent="1638" descent="-410" />
<missing-glyph horiz-adv-x="479" />
<glyph unicode="&#xfb01;" horiz-adv-x="1499" d="M98 997v66l230 49v90q0 143 62.5 252t154.5 168t176 59q102 0 135 -16v-141q-16 10 -62 19t-110 9q-63 0 -107.5 -19.5t-71 -81.5t-26.5 -181v-160h312v-113h-312v-909l232 -16v-72h-592v72l209 18v907h-230zM954 0v72l172 18v873l-141 55v51l246 66l37 -19v-1026 l168 -18v-72h-482zM1055 1501q0 51 39 88t86 37q51 0 77.5 -29.5t26.5 -74.5q0 -53 -38 -88t-87 -35q-43 0 -73.5 28.5t-30.5 73.5z" />
<glyph unicode="&#xfb02;" horiz-adv-x="1519" d="M98 997v66l230 49v90q0 143 62.5 252t154.5 168t176 59q102 0 135 -16v-141q-16 10 -62 19t-110 9q-63 0 -107.5 -19.5t-71 -81.5t-26.5 -181v-160h312v-113h-312v-909l232 -16v-72h-592v72l209 18v907h-230zM950 0v72l174 18v1395l-163 28v74l280 35l35 -23v-1511 l178 -16v-72h-504z" />
<glyph horiz-adv-x="0" />
<glyph unicode="&#xd;" horiz-adv-x="0" />
<glyph unicode=" "  horiz-adv-x="479" />
<glyph unicode="&#x09;" horiz-adv-x="479" />
<glyph unicode="&#xa0;" horiz-adv-x="479" />
<glyph unicode="!" horiz-adv-x="694" d="M231 82q0 51 39 86t86 35q52 0 78.5 -30t26.5 -73q0 -53 -38 -86.5t-87 -33.5q-43 0 -74 28.5t-31 73.5zM236 1780h198l-55 -1317h-96z" />
<glyph unicode="&#x22;" horiz-adv-x="1259" d="M326 1782h182l-39 -813h-104zM754 1782h182l-39 -813h-104z" />
<glyph unicode="#" horiz-adv-x="1425" d="M154 367v104h227l37 449h-242v102h248l27 334h137l-25 -334h352l29 334h135l-26 -334h217v-102h-221l-39 -449h225l2 -104h-231l-31 -367h-131l26 367h-356l-33 -367h-135l31 367h-223zM518 471h354l37 449h-354z" />
<glyph unicode="$" horiz-adv-x="1259" d="M180 61v301h74l53 -196q57 -55 151.5 -80t196.5 -25q135 0 236.5 72t101.5 215q0 86 -53 153.5t-131 118t-211 121.5q-123 66 -207 122.5t-141 137t-57 183.5q0 170 119.5 263t281.5 114l8 165h131l-6 -161q207 -10 317 -76v-266h-69l-66 192q-76 68 -260 68 q-70 0 -142.5 -29t-122.5 -91.5t-50 -160.5q0 -109 91 -185.5t265 -162.5q141 -72 230.5 -129t153 -140t63.5 -192q0 -199 -128 -301t-331 -112l-8 -209h-131l6 211q-119 8 -223.5 31.5t-141.5 47.5z" />
<glyph unicode="%" horiz-adv-x="1726" d="M90 1053q0 119 46 203.5t124 127.5t168 43q139 0 209 -103t70 -261q0 -117 -46.5 -201t-122 -127t-163.5 -43q-86 0 -150.5 49.5t-99.5 132t-35 179.5zM221 1061q0 -127 45 -205t127 -78q86 0 134 74t48 203q0 133 -45 209.5t-129 76.5t-132 -74.5t-48 -205.5zM528 20 l539 1563h131l-539 -1563h-131zM1022 524q0 119 46 204t124 128t168 43q139 0 208.5 -103.5t69.5 -260.5q0 -115 -45 -199t-120.5 -128t-161.5 -44q-88 0 -153.5 49t-100.5 131t-35 180zM1153 532q0 -125 45 -202.5t129 -77.5q86 0 134 72.5t48 201.5q0 133 -45 210t-129 77 q-86 0 -134 -74.5t-48 -206.5z" />
<glyph unicode="&#x26;" horiz-adv-x="1566" d="M199 360q0 137 86 232.5t239 175.5q-92 129 -139 221t-47 201q0 174 103.5 273.5t263.5 99.5q163 0 243 -94.5t80 -235.5q0 -139 -93 -258t-233 -207q96 -119 226.5 -267.5t218.5 -228.5q41 86 41 224q0 94 -15.5 161.5t-27.5 79.5h149q2 -10 17.5 -67.5t15.5 -139.5 q0 -88 -21.5 -174t-70.5 -155q70 -53 127 -81t117 -34v-70q-33 -12 -70 -12q-20 0 -66 8q-88 10 -200 90q-72 -66 -185.5 -100.5t-216.5 -34.5q-119 0 -241.5 34t-211.5 121t-89 238zM342 377q0 -94 55.5 -165t148.5 -107.5t204 -36.5q223 0 319 94q-121 104 -259 254.5 t-239 285.5q-125 -73 -177 -141.5t-52 -183.5zM469 1239q0 -90 28.5 -167t63.5 -127t88 -111q117 57 184.5 150t67.5 216q0 106 -49 192.5t-170 86.5q-82 0 -147.5 -59.5t-65.5 -180.5z" />
<glyph unicode="'" horiz-adv-x="831" d="M326 1782h182l-39 -813h-104z" />
<glyph unicode="(" horiz-adv-x="790" d="M109 731q0 268 95 487.5t209.5 352.5t170.5 162l71 -41q-55 -35 -150 -157t-173 -330t-78 -474q0 -272 78 -484t173 -337t157 -164l-82 -49q-70 43 -176.5 159.5t-200.5 341t-94 533.5z" />
<glyph unicode=")" horiz-adv-x="790" d="M127 1690l84 49q68 -43 174.5 -161t200.5 -341t94 -532q0 -268 -94 -486.5t-208 -351.5t-171 -164l-72 41q55 35 150.5 159t173.5 333.5t78 478.5q0 268 -79 477t-174.5 332t-156.5 166z" />
<glyph unicode="*" horiz-adv-x="1300" d="M166 1059l346 184l86 35l-86 37l-346 182l80 117l305 -230l70 -65l-19 113l-31 352h150l-29 -352l-24 -113l90 76l286 217l91 -115l-347 -176l-98 -43l96 -37l351 -184l-95 -115l-301 234l-71 63l20 -102l31 -367h-150l31 367l19 102l-64 -63l-307 -236z" />
<glyph unicode="+" horiz-adv-x="1257" d="M176 729v125h232l163 -10l-6 166v237h127v-237l-10 -166l139 10h262v-125h-262l-139 8l10 -164v-254h-127v254l6 162l-163 -6h-232z" />
<glyph unicode="," horiz-adv-x="679" d="M166 -403q47 16 92 62t72.5 111.5t27.5 133.5q0 84 -44 148.5t-99 70.5v37l86 112q102 -23 154.5 -117t52.5 -188q2 -156 -90 -273.5t-213 -168.5l-39 51v21z" />
<glyph unicode="-" horiz-adv-x="1226" d="M174 735v119h877v-119h-877z" />
<glyph unicode="." horiz-adv-x="696" d="M229 78q0 49 37 84t80 35q49 0 72.5 -27t23.5 -68q0 -53 -34.5 -85.5t-81.5 -32.5q-39 0 -68 26.5t-29 67.5z" />
<glyph unicode="/" horiz-adv-x="813" d="M31 -362l567 1961h156l-570 -1961h-153z" />
<glyph unicode="0" horiz-adv-x="1318" d="M135 625q0 193 76 335t202 216.5t273 74.5q270 0 386 -171t112 -457q0 -188 -71 -337t-191.5 -232t-268.5 -83q-180 0 -295.5 90.5t-169 237.5t-53.5 326zM295 639q0 -246 93 -412t276 -166q184 0 273 143.5t89 409.5q0 252 -89 399.5t-273 147.5q-187 0 -278 -135 t-91 -387z" />
<glyph unicode="1" horiz-adv-x="927" d="M121 0v70l299 22v975q-49 -14 -195 -51q-94 -25 -80 -21l-14 80q90 29 230.5 94.5t173.5 94.5l40 -15l-2 -1159l281 -20v-70h-733z" />
<glyph unicode="2" horiz-adv-x="1216" d="M141 66q297 186 490.5 400t193.5 402q-2 119 -72.5 204t-211.5 85q-92 0 -195.5 -49t-163.5 -107l-39 64q63 78 187.5 139.5t263.5 61.5q131 0 218 -49.5t128 -127t41 -167.5q0 -135 -83 -286t-227.5 -291t-324.5 -247l608 35l95 160l69 -23l-63 -270h-891z" />
<glyph unicode="3" horiz-adv-x="1067" d="M70 1112q55 57 166.5 107.5t261.5 50.5q151 0 260.5 -81t109.5 -245q0 -78 -49 -161t-128 -147.5t-163 -88.5q207 8 315.5 -86t108.5 -246q0 -133 -83 -260t-234.5 -207t-347.5 -80q-82 0 -160 15v88q53 -10 123 -11q152 0 274.5 58.5t192 155t69.5 204.5 q0 147 -80.5 226t-267.5 77l-61 -8l-113 -24v114q197 35 319 127t122 205q0 135 -74 198.5t-193 63.5q-106 0 -184 -35t-139 -86z" />
<glyph unicode="4" horiz-adv-x="1247" d="M76 82l157 287q156 276 261.5 474.5t210.5 430.5h53l88 -70q-63 -117 -373 -665q-61 -104 -199 -351l-59 -92l559 27l2 498l142 45v-537l227 10v-139h-227v-377h-144v377h-672z" />
<glyph unicode="5" horiz-adv-x="1073" d="M129 567l80 670h530l29 16h98l-39 -151h-499l-74 -471q133 63 266 63q117 0 214 -49t155.5 -147.5t58.5 -239.5q0 -137 -94 -279.5t-256 -235.5t-356 -93q-59 0 -105 12l4 78q23 -4 68 -4q139 0 273 68.5t219 184t85 251.5q0 182 -93 270t-251 88q-133 0 -288 -57z" />
<glyph unicode="6" horiz-adv-x="1241" d="M129 565q0 246 127 453t324.5 341t402.5 173l33 -68q-225 -72 -386 -201.5t-245 -288.5t-90 -317q-10 -252 76 -420.5t286 -168.5q109 0 182.5 59t109.5 149.5t36 180.5q0 195 -74.5 299t-189.5 104q-86 0 -134 -18.5t-87 -48.5l-41 67q29 37 117 73t178 36 q121 0 205.5 -64.5t127.5 -165t43 -209.5q0 -131 -60 -258t-174 -209.5t-265 -82.5q-154 0 -267.5 79.5t-174 213t-60.5 292.5z" />
<glyph unicode="7" horiz-adv-x="1236" d="M145 938l52 315h884l29 -34l-559 -1532l-160 55q133 283 259 584t290 716l39 97l-666 -21l-90 -190z" />
<glyph unicode="8" horiz-adv-x="1234" d="M133 373q0 117 84 228.5t238 186.5q-115 72 -179.5 163t-64.5 216t64.5 212t166 129t213.5 42q113 0 205 -44t144.5 -121.5t52.5 -176.5q0 -119 -76 -241.5t-209 -192.5q170 -96 260 -181t90 -200q0 -141 -71.5 -236.5t-184 -140.5t-237.5 -45q-121 0 -234.5 44 t-187.5 135.5t-74 222.5zM281 410q0 -96 46 -177t131 -128.5t199 -47.5q86 0 161 36t121 100.5t46 144.5q0 76 -46 135t-112.5 102t-185.5 107l-104 55q-107 -45 -181.5 -134t-74.5 -193zM334 1192q0 -111 88 -191.5t252 -171.5q59 12 116.5 62.5t94.5 120t39 135.5 q4 94 -31 168t-100.5 114.5t-149.5 40.5q-82 0 -152.5 -35.5t-113.5 -99t-43 -143.5z" />
<glyph unicode="9" horiz-adv-x="1251" d="M127 702q0 131 60.5 258t174 210t267.5 83t261 -79.5t162.5 -213t55.5 -292.5q0 -260 -124 -493.5t-320.5 -387.5t-399.5 -193l-26 70q219 70 377.5 221.5t241.5 337t89 355.5q16 590 -348 589q-106 0 -180 -59t-111 -149.5t-37 -180.5q0 -193 76 -299t191 -106 q70 0 131 21.5t92 45.5l39 -67q-41 -43 -123 -76t-172 -33q-121 0 -206 64.5t-128 165t-43 208.5z" />
<glyph unicode=":" horiz-adv-x="696" d="M229 80q0 49 37 83t82 34q49 0 71.5 -27t22.5 -66q0 -55 -37.5 -87.5t-85.5 -30.5q-39 4 -64.5 28.5t-25.5 65.5zM229 899q0 51 38 84t85 33q47 -2 68.5 -27.5t21.5 -64.5q0 -53 -34.5 -86t-79.5 -33q-41 0 -70 25.5t-29 68.5z" />
<glyph unicode=";" horiz-adv-x="692" d="M186 -403q47 16 92.5 62t73 111.5t27.5 133.5q0 84 -44 148.5t-99 70.5v37l86 112q102 -22 154 -115.5t52 -189.5q2 -156 -90 -273.5t-215 -168.5l-37 51v21zM225 899q0 49 37 83t82 34q47 0 70.5 -26.5t23.5 -67.5q0 -53 -34.5 -85t-81.5 -32q-39 0 -68 25.5t-29 68.5z " />
<glyph unicode="&#x3c;" horiz-adv-x="1318" d="M127 690v117l969 504v-148l-842 -413l842 -416v-148z" />
<glyph unicode="=" horiz-adv-x="1226" d="M174 541v118h877v-118h-877zM174 920v120h877v-120h-877z" />
<glyph unicode="&#x3e;" horiz-adv-x="1318" d="M223 186v150l840 414l-840 415v148l969 -504v-119z" />
<glyph unicode="?" horiz-adv-x="1005" d="M135 1665l2 123q16 16 71.5 30.5t115.5 14.5q208 0 343.5 -87t197 -219t63.5 -267q0 -55 -6.5 -85t-30 -55.5t-74.5 -56.5q-45 -29 -147 -78q-109 -53 -161 -90t-52 -86q0 -59 19.5 -117.5t58.5 -152.5q6 -18 22 -56h-78q-33 25 -73.5 90.5t-70.5 138t-30 122.5 q2 57 70.5 101t202.5 103q117 51 161 80q33 20 46.5 38t11.5 40q2 133 -66.5 246.5t-184.5 180.5t-243 67q-41 0 -90 -6.5t-78 -18.5zM438 78q0 51 37 85t82 34q47 0 70.5 -27t23.5 -68q0 -53 -34.5 -85.5t-81.5 -32.5q-39 0 -68 26.5t-29 67.5z" />
<glyph unicode="@" horiz-adv-x="2117" d="M246 418q0 305 131 536.5t351 356.5t478 125q187 0 338.5 -77t238.5 -218.5t87 -329.5q0 -264 -84 -437t-206 -254t-239 -81q-43 0 -72.5 47t-29.5 145t33 293q-74 -205 -186.5 -352t-227.5 -147q-59 2 -116.5 51t-93.5 142t-36 218q0 129 54.5 274.5t157 245t237.5 99.5 q63 0 145 -16.5t129 -43.5q8 25 17.5 37t23.5 10q27 -10 92 -30q-33 -129 -90 -615q-8 -59 -8 -123q0 -63 10.5 -100t26.5 -37q68 0 151.5 81t142 221.5t58.5 305.5q0 201 -87 331t-227 188.5t-308 58.5q-211 0 -387.5 -98.5t-283 -291t-106.5 -462.5q0 -258 99.5 -422 t262.5 -236.5t363 -72.5q94 0 193.5 21.5t159.5 48.5l28 -72q-63 -49 -195 -83t-257 -34q-221 0 -396.5 98.5t-273.5 279.5t-98 419zM739 496q0 -119 36 -224.5t120 -105.5q72 0 161 116.5t159.5 281.5t89.5 292q-31 33 -105 53.5t-137 20.5q-162 0 -243 -126t-81 -308z" />
<glyph unicode="A" horiz-adv-x="1480" d="M2 0v72l145 24l533 1460h127l510 -1460l164 -24v-72h-490v72l170 22l-123 363h-628l-125 -363l172 -22v-72h-455zM442 555h562l-191 551l-88 272z" />
<glyph unicode="B" horiz-adv-x="1415" d="M109 0v72l174 24v1362l-170 15v79h239l97 7q152 8 246 8h36q236 -2 359.5 -95.5t123.5 -252.5q0 -145 -75.5 -250t-227.5 -138q111 -2 203 -47t146.5 -130t54.5 -197q0 -135 -69.5 -241.5t-214 -168t-355.5 -61.5q-98 0 -314 14h-253zM436 870q50 -8 144 -8l139 2 q158 0 254 82t96 240q0 143 -104.5 217t-268.5 74q-61 0 -143 -2t-115 -13zM438 117q31 -15 119 -26t154 -11q197 0 319.5 78t122.5 262q0 180 -102.5 260t-302.5 80h-130q-135 0 -180 -4v-639z" />
<glyph unicode="C" horiz-adv-x="1400" d="M88 727q0 250 110.5 441.5t294 295t394.5 103.5q98 0 179 -15.5t169 -40.5l65 -16l-14 -270h-82l-43 168q-68 43 -144.5 61.5t-180.5 18.5q-154 0 -289 -82t-218 -239t-83 -374q0 -199 68.5 -361.5t202.5 -260t323 -97.5q123 0 210 32t138 87l47 158h70v-273 q-33 -2 -117 -28q-100 -31 -184 -47.5t-207 -16.5q-201 0 -363 96.5t-254 269.5t-92 390z" />
<glyph unicode="D" horiz-adv-x="1591" d="M109 0v72l176 24v1360l-172 17v79h247q102 0 230 9q80 6 164 6q371 0 556 -196.5t185 -553.5q0 -254 -100.5 -441.5t-276.5 -286.5t-397 -99q-43 0 -154 4q-94 6 -205 6h-253zM438 111q148 -29 283 -29q170 4 309 77.5t222 228.5t83 386q0 340 -161.5 518t-452.5 178 q-139 0 -283 -16v-1343z" />
<glyph unicode="E" horiz-adv-x="1306" d="M102 0v72l177 24v1360l-173 17v79h1027l28 -278h-88l-39 180l-602 12v-602l404 6l22 160h84v-422h-84l-22 162l-404 6v-686l643 16l92 222l72 -21l-43 -307h-1094z" />
<glyph unicode="F" horiz-adv-x="1226" d="M106 0v72l183 26v1358l-170 17v79h1057l18 -276l-78 -2l-45 176l-629 12v-622l469 8l33 149h82v-409h-92l-25 155l-467 9v-658l295 -16v-78h-631z" />
<glyph unicode="G" horiz-adv-x="1529" d="M88 725q0 250 108.5 441.5t292 296t400.5 104.5q135 0 225 -15.5t174 -38.5q29 -10 47 -12l-14 -276h-86l-41 170q-29 29 -126 52q-89 21 -217 21h-22q-154 -2 -286.5 -83.5t-213.5 -238.5t-81 -370q0 -188 63.5 -351t193.5 -263.5t316 -100.5q109 0 204 22.5t155 76.5 v454l-262 15v80h555v-80l-134 -17v-530q-33 -6 -112 -29q-131 -39 -233.5 -60.5t-213.5 -21.5q-201 0 -358.5 97.5t-245.5 269.5t-88 387z" />
<glyph unicode="H" horiz-adv-x="1697" d="M111 0v72l170 24v1362l-164 15v79h479v-79l-162 -15v-661h821v661l-165 15v79h475v-79l-156 -15v-1362l170 -24v-72h-494v72l170 24v604h-821v-606l170 -22v-72h-493z" />
<glyph unicode="I" horiz-adv-x="753" d="M125 0v72l174 24v1362l-170 15v79h494v-79l-170 -15v-1364l178 -22v-72h-506z" />
<glyph unicode="J" horiz-adv-x="712" d="M-82 -326q121 35 208 102.5t124 162.5q29 80 37 182t8 280v1057l-172 15v79h498v-79l-172 -15v-942l2 -221q0 -156 -15 -242q-33 -182 -168 -297.5t-305 -142.5z" />
<glyph unicode="K" horiz-adv-x="1404" d="M113 0v72l161 22v1364l-157 15v79h473v-79l-160 -15v-731l614 729l-155 17l-2 79h467v-79l-158 -17l-489 -559q33 -37 102.5 -142.5t140.5 -217.5q131 -209 209 -322q77 -111 102 -111h1l161 -32v-72h-274q-23 0 -80 87t-170 273q-100 168 -170 276.5t-115 154.5 l-184 -213v-484l178 -22v-72h-495z" />
<glyph unicode="L" horiz-adv-x="1236" d="M109 0v72l176 24v1354l-172 14v88h512v-88l-185 -14l-2 -1356l588 19l111 243l71 -37l-65 -319h-1034z" />
<glyph unicode="M" horiz-adv-x="1966" d="M80 0v72l178 22l102 1356l-198 16v86h413l394 -1165l45 -137l45 141l375 1161h383v-86l-193 -16l117 -1354l186 -24v-72h-508v72l178 22l-88 1002l-12 336l-47 -181l-434 -1265h-51l-406 1144q-37 98 -63 183l-43 125l-13 -373l-53 -969l201 -24v-72h-508z" />
<glyph unicode="N" horiz-adv-x="1658" d="M106 0v72l175 22v1356l-168 14v88h323l701 -1128l149 -277v1303l-166 16v86h457v-86l-174 -16v-1450h-162l-696 1090l-146 280l-2 -1276l199 -22v-72h-490z" />
<glyph unicode="O" horiz-adv-x="1548" d="M94 733q0 268 104.5 462t278.5 288q154 84 348 84q191 0 335.5 -97.5t223 -269.5t78.5 -391q0 -260 -95 -449.5t-255 -289t-354 -99.5q-197 0 -347.5 98.5t-233.5 271.5t-83 392zM264 754q0 -190 63.5 -348t182.5 -251.5t278 -93.5q150 0 264.5 87.5t177 251t62.5 388.5 q0 186 -59 343t-174 251.5t-275 94.5q-151 0 -269 -85t-184.5 -249t-66.5 -389z" />
<glyph unicode="P" horiz-adv-x="1288" d="M88 0v72l197 24v1354l-170 12v90h243q45 0 125 7q143 8 234 8q246 0 380 -105.5t134 -359.5q0 -154 -80 -269.5t-210 -177t-273 -61.5h-119q-84 0 -111 -4v-494l275 -24v-72h-625zM438 688q82 -12 213 -12q190 2 306 93t116 327q1 195 -107 290q-101 89 -296 89h-25 l-57 -5q-12 0 -61.5 -4t-88.5 -14v-764z" />
<glyph unicode="Q" horiz-adv-x="1548" d="M94 733q0 252 92.5 437.5t247.5 283.5q172 113 389 113q191 0 335.5 -97.5t223 -270.5t78.5 -392q0 -227 -74.5 -402.5t-202.5 -281t-288 -137.5q41 -111 153.5 -156t247.5 -45q96 0 138 35l18 -101q-14 -29 -74.5 -50t-142.5 -21q-160 0 -274.5 72.5t-159.5 250.5h-31 h-8q-198 0 -350 97q-154 98 -237 273q-81 171 -81 382v10zM262 754q0 -190 64.5 -348t183.5 -251.5t278 -93.5q150 0 263.5 87.5t176 251t62.5 388.5q0 188 -59.5 345t-174 250.5t-272.5 93.5q-151 0 -270 -85t-185.5 -248t-66.5 -390z" />
<glyph unicode="R" horiz-adv-x="1406" d="M88 0v72l197 24v1352l-172 14v90h262q14 0 84 4q133 10 203 11q245 0 378.5 -93.5t133.5 -322.5q0 -154 -94.5 -270.5t-248.5 -165.5l11 -2q74 -27 143.5 -127.5t157.5 -261.5q61 -115 97 -168.5t65 -59.5l112 -24v-72h-258q-23 0 -55.5 54.5t-91.5 170.5 q-106 217 -194 342q-82 116 -171 116q-7 0 -14 -1h-195v-586l215 -24v-72h-565zM438 778q43 -4 103.5 -6t109.5 -2q172 2 265.5 94t93.5 266q0 176 -85 266q-78 82 -255 82q-16 0 -33 -1q-19 0 -86.5 -1t-112.5 -16v-682z" />
<glyph unicode="S" horiz-adv-x="1218" d="M156 61v301h73l54 -196q57 -55 151 -80t197 -25q137 0 237.5 71t100.5 216q0 86 -52.5 153.5t-130 119t-211.5 120.5q-125 63 -208.5 121t-141 138.5t-57.5 183.5q0 131 74.5 218t184.5 126t218 39q244 0 375 -78v-266h-68l-67 192q-76 68 -258 68q-72 0 -144.5 -28 t-123 -91.5t-50.5 -161.5q0 -106 89 -182t255 -160q154 -78 242 -134t152.5 -139t64.5 -194q0 -211 -143.5 -313.5t-364.5 -102.5q-139 0 -270 28t-178 56z" />
<glyph unicode="T" horiz-adv-x="1249" d="M29 1262l24 290h1174l-2 -295l-68 -8l-43 195l-397 16v-1364l272 -24v-72h-680v72l254 24v1364l-399 -16l-66 -180z" />
<glyph unicode="U" horiz-adv-x="1572" d="M33 1473v79h489v-79l-178 -17v-803q0 -332 126 -465t351 -133q213 0 317.5 161t104.5 462v778l-180 17v79h463v-79l-158 -17v-778q0 -362 -155.5 -534.5t-421.5 -172.5q-322 0 -462.5 169t-140.5 519l2 799z" />
<glyph unicode="V" horiz-adv-x="1417" d="M4 1473v79h510v-79l-192 -15l376 -1104l66 -198l55 202l330 1100l-166 15v79h434v-79l-131 -15l-491 -1478h-117l-537 1478z" />
<glyph unicode="W" horiz-adv-x="2080" d="M2 1473v79h508v-79l-203 -15l342 -1085q29 -86 64 -195l61 182l230 914l-58 184l-168 15v79h518v-79l-182 -15l293 -1106l49 -186l51 223l281 1069l-180 15v79h465v-79l-154 -15l-430 -1478h-121l-305 1079l-299 -1079h-129l-498 1478z" />
<glyph unicode="X" horiz-adv-x="1404" d="M12 0v72l178 22l439 694l-422 670l-152 15v79h529v-79l-189 -15l340 -579l336 579l-164 15v79h451v-79l-139 -15l-426 -643l438 -721l174 -22v-72h-549v72l199 24l-375 613l-342 -615l197 -22v-72h-523z" />
<glyph unicode="Y" horiz-adv-x="1337" d="M12 1473v79h461v-79l-166 -17l340 -618l53 -105l50 107l311 616l-172 17v79h434v-79l-133 -25l-420 -801v-551l207 -24v-72h-559v72l198 24v559l-485 803z" />
<glyph unicode="Z" horiz-adv-x="1347" d="M100 74l893 1263l103 125l-762 -18l-84 -223l-88 14l28 317h1055l25 -69l-883 -1256l-106 -135l809 33l112 252l86 -19l-67 -358h-1096z" />
<glyph unicode="[" horiz-adv-x="823" d="M195 37v1448q0 98 11 145t45 65.5t105 18.5q68 0 121 -8t133 -25v-71h-288v-1682h288v-71q-86 -20 -138 -28.5t-124 -8.5q-66 0 -97.5 18.5t-43.5 63.5t-12 135z" />
<glyph unicode="\" horiz-adv-x="813" d="M31 1599h153l570 -1961h-156z" />
<glyph unicode="]" horiz-adv-x="825" d="M215 -72h289v1682h-289v71q80 16 132 24.5t120 8.5q72 0 105.5 -18.5t46 -65.5t12.5 -145v-1448q0 -90 -12.5 -135t-44 -63.5t-97.5 -18.5q-70 0 -124 8t-138 29v71z" />
<glyph unicode="^" horiz-adv-x="1284" d="M174 563l387 969h158l391 -969h-141l-336 799l-334 -799h-125z" />
<glyph unicode="_" horiz-adv-x="1415" d="M-20 -193h1456v-120h-1456v120z" />
<glyph unicode="`" horiz-adv-x="884" d="M199 1642l114 125l301 -381l-45 -45l-49 33q-119 78 -199.5 141.5t-121.5 126.5z" />
<glyph unicode="a" d="M123 283q0 137 108.5 222t261 121t295.5 36v96q0 154 -75.5 211t-216.5 57q-61 0 -148.5 -23.5t-152.5 -58.5l-29 74q68 55 186.5 87t202.5 32q174 0 278.5 -80t104.5 -281l-2 -702h129v-58q-72 -36 -167 -36h-5q-45 0 -66.5 12t-27.5 39.5t-6 85.5q-115 -139 -353 -140 q-88 0 -160.5 39t-114.5 109t-42 158zM272 311q0 -229 260 -229q74 0 145 32.5t107 67.5l2 391q-190 0 -352 -60t-162 -202z" />
<glyph unicode="b" horiz-adv-x="1255" d="M39 1520v71l291 31l35 -16v-592q74 61 156.5 100t191.5 39q115 0 214 -55.5t161.5 -178t62.5 -315.5q0 -172 -70.5 -316.5t-197.5 -230.5t-291 -86q-88 0 -171 13.5t-139.5 32t-66.5 32.5v1442zM365 141q14 -39 81.5 -58.5t163.5 -19.5q100 0 189.5 55.5t145.5 172.5 t56 291q0 233 -102 342.5t-252 109.5q-86 0 -160.5 -32.5t-121.5 -77.5v-783z" />
<glyph unicode="c" horiz-adv-x="1036" d="M109 543q0 184 74.5 322.5t202.5 211t284 72.5q80 0 149.5 -13.5t104.5 -35.5v-221h-74l-43 122q-33 25 -81 36.5t-97 11.5q-102 0 -187.5 -49.5t-137.5 -147.5t-52 -242q0 -178 56.5 -293.5t144.5 -169t182 -53.5q76 0 163 19.5t130 48.5l28 -76q-53 -49 -158.5 -77.5 t-215.5 -28.5q-150 0 -256.5 72.5t-161.5 200.5t-55 290z" />
<glyph unicode="d" horiz-adv-x="1257" d="M106 541q0 174 75 314t205 219t288 79q117 0 213 -37v371l-207 26v74l319 35l39 -20v-1528h136v-66q-33 -16 -88.5 -26.5t-98.5 -10.5q-61 0 -79 27q-15 22 -16 78q0 12 1 26q-45 -47 -135 -87t-217 -40q-115 0 -214.5 60.5t-160 187.5t-60.5 318zM254 567 q0 -158 48 -264t126 -156.5t170 -50.5q82 0 160 25.5t129 75.5v776q-70 88 -234 88q-96 0 -187 -48t-151.5 -159t-60.5 -287z" />
<glyph unicode="e" d="M104 557q0 168 70 302t194 212t281 82h12q161 1 259 -107q102 -112 108 -311q1 -16 1 -33q0 -61 -11 -141h-764v-8q0 -211 104 -336q106 -127 299 -127q84 0 176.5 20.5t131.5 47.5l32 -72q-53 -49 -167.5 -80t-233.5 -31q-233 0 -362.5 158t-129.5 424zM258 662h608 l2 59q0 248 -135 321q-57 18 -131 19q-135 0 -230.5 -99.5t-113.5 -299.5z" />
<glyph unicode="f" horiz-adv-x="825" d="M98 997v66l230 49v90q0 143 62.5 252t154.5 168t176 59q102 0 135 -16v-141q-16 10 -62 19t-110 9q-63 0 -107.5 -19.5t-71 -81.5t-26.5 -181v-160h312v-113h-312v-909l232 -16v-72h-592v72l209 18v907h-230z" />
<glyph unicode="g" horiz-adv-x="1193" d="M133 -236q0 84 54.5 161t117.5 116q-53 18 -76.5 47t-27.5 53.5t-4 67.5t32.5 113.5t87.5 121.5q-163 99 -163 307q0 134 63.5 225t164.5 137t218 50h16q155 0 263 -76q51 43 159 43h125v-124l-207 2q57 -90 58 -217q0 -125 -60.5 -218.5t-161 -142.5t-217.5 -49 q-123 0 -215 39q-14 -31 -17 -66t-3 -84q0 -61 30.5 -90.5t106.5 -34.5q49 -6 258 -6q174 0 259 -49t106.5 -111.5t21.5 -140.5q0 -168 -136 -268t-372 -100q-207 0 -344 68.5t-137 225.5zM285 -184q0 -133 100 -191.5t248 -58.5q170 0 270.5 59.5t100.5 173.5q0 68 -24 112 t-91.5 69.5t-194.5 25.5h-141q-113 0 -191 17q-77 -78 -77 -207zM303 782q0 -139 76 -226t225 -87q129 0 192.5 71.5t63.5 223.5q0 158 -71.5 233.5t-215.5 75.5q-122 0 -196 -68.5t-74 -222.5z" />
<glyph unicode="h" horiz-adv-x="1402" d="M111 1513v74l282 35l43 -23l-2 -450v-168q86 68 205 113t199 45q135 0 207.5 -52.5t102.5 -166.5q28 -107 28 -291v-25v-514l151 -18v-72h-473v72l170 18v438q0 186 -17.5 288t-71.5 152t-165 50q-78 0 -171 -26.5t-163 -73.5v-828l158 -18v-72h-459v72l152 18v1395z" />
<glyph unicode="i" horiz-adv-x="673" d="M129 0v72l172 18v873l-143 55v51l250 66l36 -19v-1026l166 -18v-72h-481zM229 1501q0 51 38 88t85 37q51 0 78 -29.5t27 -74.5q0 -53 -37 -88t-86 -35q-43 0 -74 28.5t-31 73.5z" />
<glyph unicode="j" horiz-adv-x="645" d="M-4 -383q29 -10 106 -10q70 0 112 34.5t63.5 119.5t21.5 237v965l-149 55v51l258 66l36 -19v-1128q0 -236 -94 -367t-258 -131q-23 0 -56.5 2t-39.5 8v117zM227 1520q0 51 38 85.5t85 34.5q53 0 79 -28.5t26 -75.5q0 -53 -37 -87t-86 -34q-43 0 -74 27.5t-31 77.5z" />
<glyph unicode="k" horiz-adv-x="1263" d="M106 1516v71l297 35l35 -20v-869l-4 -188l488 487l-146 12v86h436v-86l-145 -14l-367 -360l443 -580l147 -18v-72h-461v72l150 20l-369 504l-176 -168l4 -227v-113l152 -16v-72h-469v72l166 18v1399z" />
<glyph unicode="l" horiz-adv-x="694" d="M127 0v72l174 18v1395l-164 28v74l279 35l37 -23v-1511l178 -16v-72h-504z" />
<glyph unicode="m" horiz-adv-x="2058" d="M137 1018v51l242 66l37 -21v-137q76 59 194.5 108.5t216.5 51.5h23q90 0 147 -28q64 -32 101 -110q70 51 190.5 93.5t214.5 44.5q14 1 28 1q105 0 169 -41q72 -46 102.5 -150.5t30.5 -287.5v-569l170 -18v-72h-463v72l141 18v541q0 143 -18 225t-69.5 123t-149.5 41 q-145 0 -320 -96q25 -100 25 -256v-580l158 -16v-72h-459v72l151 18v559q0 137 -18 215t-67.5 116t-143.5 38q-70 0 -159 -31t-175 -88v-809l154 -18v-72h-447v72l140 18v864z" />
<glyph unicode="n" horiz-adv-x="1388" d="M137 1018v51l240 66l39 -21v-137q74 59 193.5 109.5t215.5 52.5q14 1 28 1q105 0 171 -41q74 -46 106.5 -151.5t32.5 -283.5v-576l162 -16v-72h-467v72l154 18v547q0 137 -20.5 220t-72 123t-145.5 40q-78 0 -165 -31t-173 -90v-809l156 -18v-72h-451v72l142 16v866z" />
<glyph unicode="o" horiz-adv-x="1218" d="M106 571q0 174 74 306.5t196 204t259 71.5q162 0 270.5 -79t159.5 -210t51 -291q-2 -172 -70.5 -308t-185.5 -213t-256 -77q-172 0 -283.5 82t-163 217.5t-51.5 296.5zM266 592q0 -225 90 -372.5t265 -147.5q170 0 251.5 123.5t81.5 367.5q0 223 -87 361.5t-259 138.5 q-170 0 -256 -123t-86 -348z" />
<glyph unicode="p" horiz-adv-x="1320" d="M131 -440l148 20v1374l-144 64v51l238 66l39 -21v-113q61 61 155.5 106.5t208.5 45.5q117 0 216.5 -56.5t162 -180t62.5 -320.5q0 -170 -72 -311.5t-200 -224.5t-292 -83q-115 0 -227 41l4 -288v-152l209 -18v-72h-508v72zM426 928l2 -772q27 -41 86 -67t152 -28 q104 0 194 54.5t146.5 174.5t56.5 304q0 231 -100.5 340.5t-247.5 109.5q-97 0 -163.5 -33.5t-125.5 -82.5z" />
<glyph unicode="q" horiz-adv-x="1230" d="M104 545q0 170 74 308t206 219t300 81q59 0 117.5 -11.5t97.5 -27.5l102 23l37 -17v-1532l142 -18v-82h-508v82l215 20v363l4 156q-143 -137 -356 -138q-88 0 -184.5 43t-171.5 170t-75 361zM252 555q0 -227 92 -347t246 -120q104 0 181 32t116 75v784q-41 47 -98.5 65.5 t-135.5 18.5q-106 0 -197 -56.5t-147.5 -171t-56.5 -280.5z" />
<glyph unicode="r" horiz-adv-x="919" d="M111 0v72l174 18v864l-148 64v51l238 66l41 -21v-141q45 55 157.5 109.5t204.5 54.5q66 0 99 -4v-168q-8 2 -35 11t-59.5 13t-75.5 4q-139 0 -271 -84v-819l299 -18v-72h-624z" />
<glyph unicode="s" horiz-adv-x="1042" d="M172 61v220h72l32 -131q53 -43 113 -61.5t135 -18.5q121 0 194 51t73 153q0 53 -30 90t-75 63t-123 60l-71 33q-141 66 -223.5 140.5t-82.5 189.5q0 100 59.5 167.5t150.5 101.5t188 34q90 0 167.5 -21.5t122.5 -52.5v-200h-65l-37 116q-70 70 -192 70q-117 0 -183.5 -49 t-66.5 -144q0 -72 55 -114.5t172 -100.5l51 -24q16 -8 116.5 -52t156 -114t55.5 -160q0 -158 -118 -245t-304 -87q-190 0 -342 86z" />
<glyph unicode="t" horiz-adv-x="856" d="M123 1012v63l61 15q57 12 78 22t37 45q14 47 30.5 126t18.5 103h80v-268h354v-106h-356v-563q0 -162 8 -233t34 -97.5t83 -26.5t123.5 20.5t93.5 39.5l27 -78q-39 -43 -131.5 -71t-165.5 -28q-106 0 -162.5 65.5t-56.5 209.5v762h-156z" />
<glyph unicode="u" horiz-adv-x="1288" d="M117 1030v64l223 43l31 -19v-686q0 -127 18.5 -197.5t68.5 -105.5t146 -35q94 0 184.5 45t131.5 86v776l-125 21v68l247 47l25 -17v-1046h125v-68q-31 -14 -79 -25.5t-85 -11.5q-94 0 -94 78v92q-192 -159 -389 -159h-2q-150 0 -219.5 60t-86 155.5t-18.5 273.5v541z" />
<glyph unicode="v" horiz-adv-x="1177" d="M2 1034v84h414v-84l-137 -18l243 -586l99 -291l98 279l213 598l-135 16v86h381v-84l-113 -18l-410 -1043h-104l-447 1045z" />
<glyph unicode="w" horiz-adv-x="1675" d="M2 1032v86h414v-86l-152 -18l215 -686l51 -197l43 199l209 788h136l215 -788l53 -201l51 193l180 694l-129 16v86h385v-84l-127 -20l-303 -1041h-139l-234 813l-24 148l-39 -148l-221 -813h-127l-348 1045z" />
<glyph unicode="x" horiz-adv-x="1153" d="M4 1032v86h477v-86l-153 -14l225 -332l43 -68l47 78l217 322l-145 14v86h422v-86l-148 -16l-340 -455l357 -473l141 -16v-72h-473v72l153 16l-272 391l-49 -80l-215 -311l186 -16v-72h-465v72l150 18l340 455l-352 473z" />
<glyph unicode="y" horiz-adv-x="1140" d="M2 1032v86h442v-86l-157 -16l250 -701l84 -239l65 231l217 711l-164 14v86h416v-86l-119 -12q-76 -225 -139 -413.5t-113 -332.5q-82 -246 -106 -309q-86 -223 -176 -338.5t-215 -142.5q-61 6 -66 6q-20 0 -40.5 4t-30.5 8v131q40 -10 77 -10q90 0 181.5 79t154.5 286 h-35l-409 1030z" />
<glyph unicode="z" horiz-adv-x="1069" d="M92 74l68 88l569 778l84 100l-547 -14l-55 -184h-72l2 276h832l20 -69l-622 -842l-99 -125l594 20l62 172h82l-19 -274h-870z" />
<glyph unicode="{" horiz-adv-x="1013" d="M84 727v100q96 25 179 63t83 73v518q0 100 12.5 148t47 67.5t108.5 19.5q59 0 104.5 -7t85 -16.5t60.5 -13.5l-2 -71h-289v-637q0 -45 -28.5 -77t-69.5 -54.5t-131 -63.5q115 -53 172 -97t57 -104v-643h289l2 -73q-74 -18 -130 -26.5t-130 -8.5q-70 0 -102.5 18.5 t-44 66.5t-11.5 148v523q0 34 -83 77t-179 70z" />
<glyph unicode="|" horiz-adv-x="847" d="M358 -186v1966h131v-1966h-131z" />
<glyph unicode="}" horiz-adv-x="940" d="M176 -141l2 73h289v643q0 61 59.5 106.5t167.5 94.5q-14 8 -90 44t-106.5 72t-30.5 79v637h-289l-2 71q14 4 60.5 15.5t92.5 16.5t97 5q74 0 108.5 -19.5t47 -67.5t12.5 -148v-518q0 -35 83 -73t179 -63v-100q-96 -29 -179 -71t-83 -76v-523q0 -100 -11.5 -147t-45 -66.5 t-103.5 -19.5q-74 0 -128 8t-130 27z" />
<glyph unicode="~" horiz-adv-x="1251" d="M152 868q51 78 138 129.5t193 51.5q55 0 96.5 -25t94.5 -74q45 -41 75.5 -60.5t67.5 -19.5q111 0 217 111l64 -76q-53 -78 -141.5 -129t-192.5 -51q-55 0 -99 26.5t-94 73.5q-47 41 -77.5 60.5t-65.5 19.5q-66 0 -117 -31.5t-98 -80.5z" />
<glyph horiz-adv-x="0" />
<glyph unicode="&#xa1;" horiz-adv-x="700" d="M236 -399l53 1347h98l47 -1347h-198zM244 1317q0 49 36.5 82t81.5 33q52 0 74.5 -30t18.5 -73q-2 -49 -38 -79.5t-83 -28.5q-37 4 -63.5 28.5t-26.5 67.5z" />
<glyph unicode="&#xa2;" horiz-adv-x="1103" d="M131 551q0 162 61.5 290t169 205.5t242.5 96.5l17 219h102l-14 -213q76 -2 139 -15.5t96 -33.5v-221h-74l-43 122q-33 25 -81 36.5t-97 11.5q-102 0 -187 -48.5t-137.5 -145.5t-52.5 -239q-2 -180 54.5 -297.5t145.5 -171t183 -53.5q76 0 163 19.5t130 48.5l29 -76 q-51 -47 -149.5 -74.5t-209.5 -31.5l-10 -195h-102l8 203q-184 30 -283.5 183t-99.5 380z" />
<glyph unicode="&#xa3;" horiz-adv-x="1429" d="M98 51q0 33 34 67t94.5 55.5t138.5 16.5q31 43 50 133.5t19 170.5v256h-192v122h192v119q0 154 60.5 285t169 209t249.5 78q88 2 150.5 -15.5t116.5 -60.5l-80 -152q-4 10 -41 41t-96.5 57.5t-131.5 26.5q-109 -2 -178 -104.5t-69 -366.5v-117h350v-122h-348v-56 q0 -141 -15.5 -234t-43 -155.5t-74.5 -140.5q51 -2 176 -49q119 -43 188 -56q68 -10 113 -10q141 0 200.5 69.5t59.5 172.5q0 106 -78 164l76 143q121 -57 149 -225q6 -55 6 -68q0 -127 -81.5 -227.5t-294.5 -110.5q-25 -2 -72 -2q-115 0 -203 24.5t-192 65.5q-61 25 -87 32 t-46 3q-39 -53 -87.5 -87t-99.5 -34q-31 0 -56.5 16.5t-25.5 65.5z" />
<glyph unicode="&#xa4;" horiz-adv-x="1429" d="M238 1096l67 67l176 -176q102 76 226 76q68 0 131 -22.5t112 -65.5l172 172l68 -68l-176 -178q68 -94 67 -211q0 -129 -77 -227l176 -174l-70 -70l-174 176q-104 -78 -229 -78q-121 0 -222 72l-176 -174l-67 68l172 172q-80 98 -80 235q0 133 78 230zM449 690 q0 -74 34.5 -136t94 -98t129.5 -36t129 36t94 98t35 136t-35 136.5t-94.5 98.5t-128.5 36q-70 0 -129.5 -36t-94 -98.5t-34.5 -136.5z" />
<glyph unicode="&#xa5;" horiz-adv-x="1392" d="M29 1473v79h471v-79l-160 -17l313 -483l54 -113h24l66 121q47 86 219 367q68 111 67 110l-151 15v79h430v-79l-141 -27l-387 -586h366v-108h-428l2 -70v-178h426v-109h-426v-299l203 -24v-72h-551v72l195 24v299h-443v109h443v182l4 66h-447v108h391l-405 596z" />
<glyph unicode="&#xa6;" horiz-adv-x="847" d="M358 -186v897h131v-897h-131zM358 885v895h131v-895h-131z" />
<glyph unicode="&#xa7;" horiz-adv-x="1325" d="M174 113h72l53 -193q66 -68 152 -87t202 -19q133 0 234.5 62.5t101.5 195.5q0 84 -50 145.5t-125 105.5t-200 101q-139 63 -221 111.5t-139 123t-57 177.5q0 84 28.5 165.5t77.5 135.5q-90 94 -90 219q0 135 76 228t187.5 137t213.5 44q141 0 240.5 -24.5t152.5 -54.5 v-269h-71l-64 199q-31 31 -104.5 47t-161.5 16q-70 0 -145.5 -29.5t-129 -96t-53.5 -169.5q0 -78 50.5 -136t122 -99t200.5 -98q141 -63 225 -112.5t143.5 -124.5t59.5 -177q0 -88 -24.5 -175t-65.5 -143q72 -92 72 -198q0 -201 -145.5 -298t-366.5 -97q-139 0 -271.5 28.5 t-179.5 57.5v301zM346 866q0 -78 49 -136t122 -99t200 -99q170 -76 246 -124q18 37 28 87t10 95q0 84 -51 145.5t-124.5 104.5t-200.5 102q-158 68 -230 117q-22 -41 -35.5 -92.5t-13.5 -100.5z" />
<glyph unicode="&#xa8;" horiz-adv-x="1034" d="M170 1511q0 51 39 88t86 37q55 0 81.5 -29.5t26.5 -76.5q0 -55 -38.5 -89t-90.5 -34q-43 0 -73.5 27.5t-30.5 76.5zM625 1511q0 51 37.5 88t85.5 37q55 0 81.5 -29.5t26.5 -76.5q0 -55 -38 -89t-89 -34q-43 0 -73.5 27.5t-30.5 76.5z" />
<glyph unicode="&#xa9;" horiz-adv-x="2029" d="M174 1069q0 227 113.5 423t307 312.5t419.5 116.5q225 0 418.5 -116.5t307 -312.5t113.5 -423q0 -225 -113.5 -420.5t-307 -312.5t-418.5 -117q-223 0 -417 117t-308.5 312.5t-114.5 420.5zM285 1069q0 -199 98 -371t266 -273t367 -101t365.5 101t264 273t97.5 371 q0 201 -97.5 373t-264.5 273.5t-365 101.5q-199 0 -367 -101.5t-266 -273.5t-98 -373zM582 1061q0 133 65.5 246.5t166.5 183.5t202 80q16 2 61 2q84 0 159 -14.5t99 -47.5v-190h-94l-43 125q-31 18 -67.5 27.5t-120.5 9.5q-129 -2 -206 -110.5t-77 -276.5q0 -115 45 -207 t127 -144.5t188 -52.5q66 0 137.5 23.5t96.5 48.5l22 -59q-45 -51 -131 -86t-188 -35q-215 0 -328.5 132t-113.5 345z" />
<glyph unicode="&#xaa;" horiz-adv-x="942" d="M76 973q0 166 151.5 223t409.5 57v33q0 88 -26.5 132t-75 58.5t-127.5 14.5q-80 0 -152 -18.5t-109 -49.5l-32 72q43 41 141 69.5t195 28.5q106 0 174.5 -21.5t109.5 -87t41 -190.5l-2 -471h88v-63q-20 -10 -65 -20.5t-78 -10.5q-53 0 -66.5 24.5t-11.5 92.5 q-53 -45 -126 -78t-193 -33q-49 0 -106.5 26.5t-98.5 80t-41 131.5zM227 1001q0 -76 41 -120.5t109 -44.5q74 0 147.5 23.5t110.5 60.5v256q-189 0 -298.5 -38t-109.5 -137z" />
<glyph unicode="&#xab;" horiz-adv-x="1867" d="M248 549v127l637 391l41 -72l-537 -381l537 -368l-41 -74zM936 549v127l639 391l43 -72l-539 -381l539 -368l-43 -74z" />
<glyph unicode="&#xac;" horiz-adv-x="1208" d="M174 748v106h860v-524h-129v418h-731z" />
<glyph unicode="&#xad;" horiz-adv-x="1218" d="M174 735v119h877v-119h-877zM174 735z" />
<glyph unicode="&#xae;" horiz-adv-x="2029" d="M174 1069q0 227 113.5 423t307 312.5t419.5 116.5q225 0 418.5 -116.5t307 -312.5t113.5 -423q0 -225 -113.5 -420.5t-307 -312.5t-418.5 -117q-223 0 -417 117t-308.5 312.5t-114.5 420.5zM285 1069q0 -199 98 -371t266 -273t367 -101t365.5 101t264 273t97.5 371 q0 201 -97.5 373t-264.5 273.5t-365 101.5q-199 0 -367 -101.5t-266 -273.5t-98 -373zM635 592v72l98 24v762l-98 20v82h149q66 0 97 2q66 4 161 5q166 0 251 -61.5t89 -172.5q0 -248 -262 -299q53 -33 86 -77t78 -120q45 -82 83 -121.5t99 -37.5v-80h-123q-70 0 -107.5 49 t-82.5 152q-43 102 -83 160.5t-109 84.5q-10 -4 -38 -13t-49 -11v-326l101 -22v-72h-340zM872 1096q45 -8 152 -9q92 0 152.5 58.5t60.5 136.5q0 98 -59.5 146.5t-159.5 48.5h-36t-53.5 -3.5t-56.5 -9.5v-368z" />
<glyph unicode="&#xaf;" horiz-adv-x="874" d="M186 1468v123h527v-123h-527z" />
<glyph unicode="&#xb0;" horiz-adv-x="651" d="M12 1282q0 82 42 153.5t115 114.5t157 43t156.5 -42t115.5 -113.5t43 -155.5t-42 -156.5t-114.5 -114.5t-158.5 -42q-84 0 -157 42t-115 114.5t-42 156.5zM109 1282q0 -90 63.5 -154.5t153.5 -64.5q94 0 155.5 62.5t61.5 156.5q0 90 -63.5 153.5t-153.5 63.5 q-95 0 -156 -61.5t-61 -155.5z" />
<glyph unicode="&#xb1;" horiz-adv-x="1257" d="M174 729v125h232l163 -10l-4 166v237h125v-237l-10 -166l139 10h262v-125h-262l-139 8l10 -164v-254h-125v254l4 162l-163 -6h-232zM186 51v119h883v-119h-883z" />
<glyph unicode="&#xb2;" horiz-adv-x="1257" d="M141 1507q33 51 101.5 102.5t161 85.5t192.5 34q139 0 225 -44.5t121 -105.5t35 -121q0 -178 -161 -325.5t-472 -309.5l555 29l115 154l84 -37l-58 -248h-858l-37 96q117 57 268.5 155.5t267.5 214.5t116 212q0 104 -66.5 154.5t-169.5 50.5q-94 0 -195.5 -47.5 t-158.5 -124.5z" />
<glyph unicode="&#xb3;" horiz-adv-x="1144" d="M193 1585q68 51 184.5 90t220.5 39q143 0 224 -70.5t81 -170.5q0 -90 -59.5 -159t-177.5 -110q117 8 188.5 -35t100 -106.5t28.5 -120.5q0 -92 -54.5 -167t-158.5 -117t-246 -42q-61 0 -143 17.5t-152 48.5v96q64 -26 143 -40.5t148 -14.5q150 2 226.5 66.5t76.5 162.5 q0 88 -62.5 134.5t-170.5 46.5l-58 -9l-143 -28v102q162 27 256 97.5t94 172.5q0 70 -56 104t-140 34q-74 0 -167 -30t-143 -69z" />
<glyph unicode="&#xb4;" horiz-adv-x="884" d="M225 1386l301 381l115 -125q-78 -121 -371 -301z" />
<glyph unicode="&#xb6;" horiz-adv-x="1314" d="M113 1133q0 201 127 320.5t383 119.5q32 0 109 -4t124 -6l178 -11h168v-82l-168 -26v-1350l144 -24v-70h-283l-2 1440l-223 2v-1442h-334v70l199 24v588q-215 0 -318.5 108.5t-103.5 342.5z" />
<glyph unicode="&#xb7;" horiz-adv-x="669" d="M231 838q0 49 37 81.5t82 32.5q49 0 71.5 -26.5t22.5 -67.5q0 -49 -34.5 -82t-79.5 -33q-41 0 -70 26t-29 69z" />
<glyph unicode="&#xb8;" horiz-adv-x="608" d="M141 -506l2 84q31 -6 64 -11t57 -5q74 0 118 24.5t44 102.5q0 55 -45 84.5t-133 29.5q-16 0 -31.5 -2t-21.5 -2q0 49 7 93.5t23 105.5h97q-9 -45 -9 -86q0 -25 2 -37q133 2 201 -54.5t68 -133.5q0 -94 -69 -150.5t-177 -62.5l-47 -2q-66 0 -102.5 10t-47.5 12z" />
<glyph unicode="&#xb9;" horiz-adv-x="1081" d="M197 1528q92 29 235 97.5t176 98.5l49 -16l-4 -895l271 -22v-72h-707v72l283 22v709q-178 -51 -287 -76z" />
<glyph unicode="&#xba;" horiz-adv-x="976" d="M92 1153q0 147 61.5 246.5t155.5 146.5t193 47q182 0 285.5 -115.5t103.5 -316.5q0 -143 -62.5 -239.5t-156.5 -141.5t-191 -45q-109 0 -197.5 49.5t-140 143.5t-51.5 225zM250 1176q0 -160 64.5 -256.5t162.5 -96.5q127 0 190.5 71t63.5 249q0 168 -61.5 265t-173.5 97 q-119 0 -182.5 -82t-63.5 -247z" />
<glyph unicode="&#xbb;" horiz-adv-x="1867" d="M254 242l537 381l-537 368l43 76l635 -375v-131l-635 -389zM942 242l537 381l-537 368l43 76l635 -375v-131l-635 -389z" />
<glyph unicode="&#xbc;" horiz-adv-x="2613" d="M219 1528q92 29 235.5 97.5t176.5 98.5l47 -16l-2 -895l270 -22v-72h-706v72l282 22v709q-193 -55 -286 -76zM797 -309l749 2189l107 -35l-748 -2187zM1391 274l577 846l55 2l95 -82l-525 -678l-59 -81l453 28l2 277l145 20v-287l285 19l6 -141h-291v-375h-147l2 375 h-551z" />
<glyph unicode="&#xbd;" horiz-adv-x="2613" d="M219 1528q92 29 235.5 97.5t176.5 98.5l47 -16l-2 -895l270 -22v-72h-706v72l282 22v709q-193 -55 -286 -76zM791 -322l749 2202l107 -29l-748 -2193zM1440 784q33 53 101.5 104.5t160.5 85.5t192 34q141 0 227.5 -45t121 -107.5t34.5 -122.5q0 -178 -161.5 -323.5 t-470.5 -307.5l553 29l114 154l84 -37l-57 -250h-858l-35 98q117 58 268.5 156t267 213t115.5 211q0 106 -66.5 156.5t-170.5 50.5q-94 0 -195.5 -47.5t-159.5 -124.5z" />
<glyph unicode="&#xbe;" horiz-adv-x="2619" d="M176 1585q68 51 184.5 90t221.5 39q143 0 224 -70.5t81 -170.5q0 -90 -59.5 -159t-178.5 -110q117 8 188.5 -35t100.5 -106.5t29 -120.5q0 -92 -54.5 -167t-159 -117t-245.5 -42q-61 0 -143 17.5t-152 48.5v96q63 -26 142 -40.5t149 -14.5q150 2 226.5 66.5t76.5 162.5 q0 88 -62.5 134.5t-171.5 46.5l-57 -9l-143 -28v102q162 27 256 97.5t94 172.5q0 70 -56.5 104t-140.5 34q-74 0 -167 -30t-142 -69zM801 -322l749 2202l107 -29l-748 -2193zM1391 274l577 846l55 2l93 -82l-523 -678l-59 -81l453 28l2 277l145 20v-287l285 19l4 -141h-289 v-375h-147l2 375h-551z" />
<glyph unicode="&#xbf;" horiz-adv-x="1005" d="M84 156q0 55 6 83.5t29.5 54t75.5 58.5q43 27 145 76q111 53 163 90t52 88q0 61 -21.5 126t-62.5 155l-18 43h79q31 -25 73 -90.5t72 -138t30 -119.5q-2 -55 -70 -100.5t-199 -102.5q-47 -20 -93 -43t-73 -41q-35 -23 -47 -40t-12 -44q0 -131 69.5 -242.5t183.5 -177 t239 -65.5q43 0 93 6t79 16l-3 -121q-14 -18 -70 -31.5t-116 -13.5q-209 0 -344 87t-196.5 219t-63.5 268zM344 1313q0 51 37 85t82 34q47 0 70.5 -27t23.5 -68q0 -53 -35 -85.5t-82 -32.5q-39 0 -67.5 26.5t-28.5 67.5z" />
<glyph unicode="&#xc0;" horiz-adv-x="1480" d="M2 0v72l145 24l533 1460h127l510 -1460l164 -24v-72h-490v72l170 22l-123 363h-628l-125 -363l172 -22v-72h-455zM371 1796l123 125l292 -270l-41 -41q-90 24 -187 74.5t-187 111.5zM442 555h562l-191 551l-88 272z" />
<glyph unicode="&#xc1;" horiz-adv-x="1480" d="M2 0v72l145 24l533 1460h127l510 -1460l164 -24v-72h-490v72l170 22l-123 363h-628l-125 -363l172 -22v-72h-455zM442 555h562l-191 551l-88 272zM696 1651l291 270l123 -125q-195 -135 -373 -186z" />
<glyph unicode="&#xc2;" horiz-adv-x="1480" d="M2 0v72l145 24l533 1460h127l510 -1460l164 -24v-72h-490v72l170 22l-123 363h-628l-125 -363l172 -22v-72h-455zM401 1659l258 262h164l260 -260l-75 -41l-267 186l-272 -186zM442 555h562l-191 551l-88 272z" />
<glyph unicode="&#xc3;" horiz-adv-x="1480" d="M2 0v72l145 24l533 1460h127l510 -1460l164 -24v-72h-490v72l170 22l-123 363h-628l-125 -363l172 -22v-72h-455zM348 1757q41 70 116 117t152 47q45 0 78 -19.5t72 -56.5q35 -33 59.5 -48t57.5 -15q55 0 103 25.5t85 66.5l43 -66q-41 -70 -115.5 -116.5t-152.5 -46.5 q-45 0 -77 19t-71 56q-33 33 -58.5 49.5t-57.5 16.5q-53 0 -103.5 -26.5t-87.5 -65.5zM442 555h562l-191 551l-88 272z" />
<glyph unicode="&#xc4;" horiz-adv-x="1480" d="M2 0v72l145 24l533 1460h127l510 -1460l164 -24v-72h-490v72l170 22l-123 363h-628l-125 -363l172 -22v-72h-455zM395 1782q0 51 40 89t87 38q53 0 80 -31t27 -78q0 -55 -39 -91t-88 -36q-43 0 -75 31t-32 78zM442 555h562l-191 551l-88 272zM848 1780q0 53 40 91t87 38 q55 0 81.5 -31t26.5 -78q0 -55 -38.5 -91t-90.5 -36q-43 0 -74.5 30t-31.5 77z" />
<glyph unicode="&#xc5;" horiz-adv-x="1480" d="M2 0v72l145 24l504 1383q-72 27 -114.5 83t-42.5 130q0 94 71.5 161.5t173.5 67.5q103 0 175.5 -66.5t72.5 -162.5q0 -72 -43 -128.5t-113 -82.5l486 -1385l164 -24v-72h-490v72l170 22l-123 363h-628l-125 -363l172 -22v-72h-455zM442 555h562l-191 551l-88 272z M594 1692q0 -57 42 -95t103 -38t103.5 37.5t42.5 93.5q0 57 -43 95t-103 38q-59 0 -102 -38t-43 -93z" />
<glyph unicode="&#xc6;" horiz-adv-x="1939" d="M2 0v72l141 24l590 1456h948l29 -278l-80 -2l-43 184l-661 10l180 -606l428 6l25 162h75v-412h-75l-25 152l-401 4l202 -678l363 12l94 220l68 -39l-45 -287h-826v72l172 24l-119 385h-614l-145 -387l176 -22v-72h-457zM465 575h549l-199 639l-37 189z" />
<glyph unicode="&#xc7;" horiz-adv-x="1402" d="M88 727q0 250 109.5 440.5t293 295t396.5 104.5q98 0 179 -15.5t169 -40.5l65 -16l-14 -270h-82l-43 168q-68 43 -144.5 61.5t-178.5 18.5q-156 0 -291 -82t-218 -239t-83 -374q0 -199 68.5 -361.5t202.5 -260t323 -97.5q121 0 210 32t138 87l47 158h70v-273 q-27 -2 -65 -13t-48 -13q-86 -27 -166 -43.5t-195 -20.5q-4 -37 -4 -57l2 -41q133 2 202 -54.5t69 -133.5q0 -94 -69.5 -150.5t-178.5 -62.5l-47 -2q-63 0 -100 10t-48 12l2 84q31 -6 64 -11t57 -5q74 0 118 24.5t44 102.5q0 55 -46 84.5t-132 29.5q-18 0 -33.5 -2t-21.5 -2 q4 88 24 176q-184 14 -331.5 113.5t-230.5 265.5t-83 373z" />
<glyph unicode="&#xc8;" horiz-adv-x="1306" d="M102 0v72l177 24v1360l-173 17v79h1027l28 -278h-88l-39 180l-602 12v-602l404 6l22 160h84v-422h-84l-22 162l-404 6v-686l643 16l92 222l72 -21l-43 -307h-1094zM354 1796l121 125l293 -270l-41 -41q-168 47 -373 186z" />
<glyph unicode="&#xc9;" horiz-adv-x="1306" d="M102 0v72l177 24v1360l-173 17v79h1027l28 -278h-88l-39 180l-602 12v-602l404 6l22 160h84v-422h-84l-22 162l-404 6v-686l643 16l92 222l72 -21l-43 -307h-1094zM678 1651l291 270l121 -125q-197 -137 -369 -186z" />
<glyph unicode="&#xca;" horiz-adv-x="1306" d="M102 0v72l177 24v1360l-173 17v79h1027l28 -278h-88l-39 180l-602 12v-602l404 6l22 160h84v-422h-84l-22 162l-404 6v-686l643 16l92 222l72 -21l-43 -307h-1094zM381 1659l258 262h164l262 -260l-78 -41l-266 186l-272 -186z" />
<glyph unicode="&#xcb;" horiz-adv-x="1306" d="M102 0v72l177 24v1360l-173 17v79h1027l28 -278h-88l-39 180l-602 12v-602l404 6l22 160h84v-422h-84l-22 162l-404 6v-686l643 16l92 222l72 -21l-43 -307h-1094zM377 1782q0 51 40 89t87 38q55 0 80.5 -31t25.5 -78q0 -55 -39 -91t-88 -36q-43 0 -74.5 31t-31.5 78z M829 1780q0 53 40 91t87 38q54 0 81.5 -31t27.5 -78q0 -55 -39 -91t-90 -36q-43 0 -75 30t-32 77z" />
<glyph unicode="&#xcc;" horiz-adv-x="753" d="M10 1796l121 125l293 -270l-41 -41q-170 49 -373 186zM125 0v72l174 24v1362l-170 15v79h494v-79l-170 -15v-1364l178 -22v-72h-506z" />
<glyph unicode="&#xcd;" horiz-adv-x="753" d="M125 0v72l174 24v1362l-170 15v79h494v-79l-170 -15v-1364l178 -22v-72h-506zM336 1651l291 270l121 -125q-197 -137 -369 -186z" />
<glyph unicode="&#xce;" horiz-adv-x="753" d="M39 1659l258 262h164l260 -260l-74 -41l-268 186l-275 -186zM125 0v72l174 24v1362l-170 15v79h494v-79l-170 -15v-1364l178 -22v-72h-506z" />
<glyph unicode="&#xcf;" horiz-adv-x="753" d="M35 1782q0 51 40 89t87 38q55 0 81.5 -31t26.5 -78q0 -55 -38.5 -91t-90.5 -36q-43 0 -74.5 31t-31.5 78zM125 0v72l174 24v1362l-170 15v79h494v-79l-170 -15v-1364l178 -22v-72h-506zM485 1780q0 53 40 91t89 38q54 0 80.5 -31t26.5 -78q0 -55 -39 -91t-90 -36 q-43 0 -75 30t-32 77z" />
<glyph unicode="&#xd0;" horiz-adv-x="1591" d="M102 743v123h183v590l-172 17v79h247q100 0 228 9q80 6 166 6q371 0 556 -198t185 -552q0 -254 -100.5 -441.5t-276.5 -286.5t-397 -99q-43 0 -154 4q-94 6 -205 6h-253v72l176 24v647h-183zM438 111q148 -29 283 -29q170 4 309 77.5t222 228.5t83 386q0 340 -161.5 518 t-452.5 178q-139 0 -283 -16v-588h264v-123h-264v-632z" />
<glyph unicode="&#xd1;" horiz-adv-x="1658" d="M106 0v72l175 22v1356l-168 14v88h323l701 -1128l149 -277v1303l-166 16v86h457v-86l-174 -16v-1450h-162l-696 1090l-146 280l-2 -1276l199 -22v-72h-490zM106 0zM434 1757q41 70 115 117t152 47q47 0 79.5 -19.5t71.5 -56.5q35 -33 59.5 -48t55.5 -15q104 0 188 92 l45 -66q-39 -68 -114.5 -115.5t-153.5 -47.5q-45 0 -79 20.5t-71 56.5q-35 33 -59.5 48.5t-54.5 15.5q-53 0 -103.5 -26.5t-87.5 -65.5z" />
<glyph unicode="&#xd2;" horiz-adv-x="1548" d="M94 0zM94 733q0 268 104.5 462t278.5 288q154 84 348 84q191 0 335.5 -97.5t223 -269.5t78.5 -391q0 -260 -95 -449.5t-255 -289t-354 -99.5q-197 0 -347.5 98.5t-233.5 271.5t-83 392zM264 754q0 -190 63.5 -348t182.5 -251.5t278 -93.5q150 0 264.5 87.5t177 251 t62.5 388.5q0 186 -59 343t-174 251.5t-275 94.5q-151 0 -269 -85t-184.5 -249t-66.5 -389zM420 1796l120 125l295 -270l-43 -41q-169 49 -372 186z" />
<glyph unicode="&#xd3;" horiz-adv-x="1548" d="M94 733q0 262 98.5 450.5t265.5 286t367 97.5q191 0 335.5 -97.5t222 -269.5t77.5 -389q0 -260 -94 -450.5t-255 -290t-353 -99.5q-197 0 -347.5 97.5t-233.5 271.5t-83 393zM264 754q0 -190 63.5 -348t182.5 -251.5t278 -93.5q150 0 264.5 87.5t177 251t62.5 388.5 q0 186 -59 343t-174 251.5t-275 94.5q-151 0 -269 -85t-184.5 -249t-66.5 -389zM743 1651l293 270l121 -125q-197 -137 -371 -186z" />
<glyph unicode="&#xd4;" horiz-adv-x="1548" d="M94 733q0 262 98.5 450.5t265.5 286t367 97.5q191 0 335.5 -97.5t222 -269.5t77.5 -389q0 -260 -94 -450.5t-255 -290t-353 -99.5q-197 0 -347.5 97.5t-233.5 271.5t-83 393zM264 754q0 -190 63.5 -348t182.5 -251.5t278 -93.5q150 0 264.5 87.5t177 251t62.5 388.5 q0 186 -59 343t-174 251.5t-275 94.5q-151 0 -269 -85t-184.5 -249t-66.5 -389zM451 1659l258 262h163l261 -260l-76 -41l-266 186l-275 -186z" />
<glyph unicode="&#xd5;" horiz-adv-x="1548" d="M94 0zM94 733q0 268 104.5 462t278.5 288q154 84 348 84q191 0 335.5 -97.5t223 -269.5t78.5 -391q0 -260 -95 -449.5t-255 -289t-354 -99.5q-197 0 -347.5 98.5t-233.5 271.5t-83 392zM264 754q0 -190 63.5 -348t182.5 -251.5t278 -93.5q150 0 264.5 87.5t177 251 t62.5 388.5q0 186 -59 343t-174 251.5t-275 94.5q-151 0 -269 -85t-184.5 -249t-66.5 -389zM395 1757q41 70 115 117t152 47q47 0 79.5 -19.5t71.5 -56.5q35 -33 59.5 -48t55.5 -15q104 0 188 92l45 -66q-39 -68 -114.5 -115.5t-153.5 -47.5q-45 0 -79 20.5t-71 56.5 q-35 33 -59.5 48.5t-54.5 15.5q-53 0 -103.5 -26.5t-87.5 -65.5z" />
<glyph unicode="&#xd6;" horiz-adv-x="1548" d="M94 0zM94 733q0 268 104.5 462t278.5 288q154 84 348 84q191 0 335.5 -97.5t223 -269.5t78.5 -391q0 -260 -95 -449.5t-255 -289t-354 -99.5q-197 0 -347.5 98.5t-233.5 271.5t-83 392zM264 754q0 -190 63.5 -348t182.5 -251.5t278 -93.5q150 0 264.5 87.5t177 251 t62.5 388.5q0 186 -59 343t-174 251.5t-275 94.5q-151 0 -269 -85t-184.5 -249t-66.5 -389zM661 1780q0 53 40 91t89 38h6h6h-2q55 0 82 -31t27 -78q0 -55 -38 -91t-89 -36h-6h-6q-43 0 -76 30t-33 77z" />
<glyph unicode="&#xd7;" horiz-adv-x="1220" d="M182 461l346 332l-346 329l97 105l329 -355l330 355l98 -105l-346 -329l346 -332l-98 -105l-330 355l-329 -355z" />
<glyph unicode="&#xd8;" horiz-adv-x="1548" d="M94 729q0 262 97.5 451.5t262 288t365.5 98.5q100 0 215 -35l58 160l69 -29l-55 -164q168 -86 261 -266t93 -422q0 -258 -92 -446.5t-248.5 -289t-347.5 -104.5q-102 0 -184 21l-62 -187l-75 29l59 182q-193 78 -304.5 267.5t-111.5 445.5zM264 754q0 -211 75 -380 t210 -253l448 1302q-94 54 -213 54q-152 0 -269.5 -85t-184 -248t-66.5 -390zM625 88q73 -27 163 -27q150 0 264.5 87.5t177 251t62.5 388.5q0 188 -59 346t-168 248z" />
<glyph unicode="&#xd9;" horiz-adv-x="1572" d="M33 0zM33 1473v79h489v-79l-178 -17v-803q0 -332 126 -465t351 -133q213 0 317.5 161t104.5 462v778l-180 17v79h463v-79l-158 -17v-778q0 -362 -155.5 -534.5t-421.5 -172.5q-322 0 -462.5 169t-140.5 519l2 799zM435 1796l120 125l295 -270l-43 -41q-169 49 -372 186z " />
<glyph unicode="&#xda;" horiz-adv-x="1572" d="M33 0zM33 1473v79h489v-79l-178 -17v-803q0 -332 126 -465t351 -133q213 0 317.5 161t104.5 462v778l-180 17v79h463v-79l-158 -17v-778q0 -362 -155.5 -534.5t-421.5 -172.5q-322 0 -462.5 169t-140.5 519l2 799zM760 1651l290 270l123 -125q-195 -135 -370 -186z" />
<glyph unicode="&#xdb;" horiz-adv-x="1574" d="M33 1473v79h489v-79l-178 -17v-803q0 -332 126 -465t351 -133q213 0 317.5 161t104.5 462v778l-180 17v79h463v-79l-158 -17v-778q0 -362 -155.5 -534.5t-421.5 -172.5q-322 0 -462.5 169t-140.5 519l2 799zM465 1659l258 262h164l262 -260l-78 -41l-266 186l-273 -186z " />
<glyph unicode="&#xdc;" horiz-adv-x="1572" d="M33 0zM33 1473v79h489v-79l-178 -17v-803q0 -332 126 -465t351 -133q213 0 317.5 161t104.5 462v778l-180 17v79h463v-79l-158 -17v-778q0 -362 -155.5 -534.5t-421.5 -172.5q-322 0 -462.5 169t-140.5 519l2 799zM674 1780q0 53 40 91t89 38h6h6h-2q55 0 82 -31t27 -78 q0 -55 -38 -91t-89 -36h-6h-6q-43 0 -76 30t-33 77z" />
<glyph unicode="&#xdd;" horiz-adv-x="1337" d="M12 0zM12 1473v79h461v-79l-166 -17l340 -618l53 -105l50 107l311 616l-172 17v79h434v-79l-133 -25l-420 -801v-551l207 -24v-72h-559v72l198 24v559l-485 803zM656 1651l290 270l123 -125q-195 -135 -370 -186z" />
<glyph unicode="&#xde;" horiz-adv-x="1286" d="M88 0v72l197 24v1362l-164 15v79h487v-79l-170 -15v-227l70 8q127 16 201 16q238 0 380 -109.5t142 -326.5q0 -152 -79 -263.5t-208 -169.5t-272 -58l-170 2q-25 2 -64 2v-236l275 -24v-72h-625zM438 424q84 -14 215 -14q186 2 304 94t118 315q0 162 -104.5 254 t-298.5 92q-94 0 -234 -32v-709z" />
<glyph unicode="&#xdf;" horiz-adv-x="1316" d="M70 0v70l157 26v781q0 236 75 396.5t194.5 237t259.5 76.5q127 0 215 -67.5t88 -227.5q0 -86 -26.5 -147.5t-78.5 -134.5q-43 -59 -64.5 -106.5t-21.5 -104.5q0 -61 43 -100.5t136 -88.5q78 -41 127 -76.5t83.5 -93t34.5 -139.5q0 -162 -116.5 -241.5t-290.5 -79.5 q-70 0 -113 2t-98 14v149q156 -72 231 -71q109 0 176.5 46t67.5 156q0 72 -52.5 119t-158.5 107q-111 59 -165 108t-54 127q0 41 22.5 88t67.5 117q55 88 85 154.5t30 134.5q0 111 -53.5 182.5t-157.5 71.5q-117 0 -189.5 -56.5t-108.5 -192.5t-36 -372v-864h-309z" />
<glyph unicode="&#xe0;" d="M123 0zM123 283q0 137 108.5 222t261 121t295.5 36v96q0 154 -75.5 211t-216.5 57q-61 0 -148.5 -23.5t-152.5 -58.5l-29 74q68 55 186.5 87t202.5 32q174 0 278.5 -80t104.5 -281l-2 -702h129v-58q-74 -37 -172 -36q-45 0 -66.5 12t-27.5 39.5t-6 85.5 q-115 -139 -353 -140q-88 0 -160.5 39t-114.5 109t-42 158zM272 311q0 -229 260 -229q74 0 145 32.5t107 67.5l2 391q-190 0 -352 -60t-162 -202zM322 1642l114 125l301 -381l-45 -45l-49 33q-119 78 -199.5 141.5t-121.5 126.5z" />
<glyph unicode="&#xe1;" d="M123 0zM123 283q0 137 108.5 222t261 121t295.5 36v96q0 154 -75.5 211t-216.5 57q-61 0 -148.5 -23.5t-152.5 -58.5l-29 74q68 55 186.5 87t202.5 32q174 0 278.5 -80t104.5 -281l-2 -702h129v-58q-74 -37 -172 -36q-45 0 -66.5 12t-27.5 39.5t-6 85.5 q-115 -139 -353 -140q-88 0 -160.5 39t-114.5 109t-42 158zM272 311q0 -229 260 -229q74 0 145 32.5t107 67.5l2 391q-190 0 -352 -60t-162 -202zM446 1386l301 381l115 -125q-78 -121 -371 -301z" />
<glyph unicode="&#xe2;" d="M123 0zM123 283q0 137 108.5 222t261 121t295.5 36v96q0 154 -75.5 211t-216.5 57q-61 0 -148.5 -23.5t-152.5 -58.5l-29 74q68 55 186.5 87t202.5 32q174 0 278.5 -80t104.5 -281l-2 -702h129v-58q-74 -37 -172 -36q-45 0 -66.5 12t-27.5 39.5t-6 85.5 q-115 -139 -353 -140q-88 0 -160.5 39t-114.5 109t-42 158zM225 1372l277 402h159l267 -398l-70 -41l-279 295l-290 -295zM272 311q0 -229 260 -229q74 0 145 32.5t107 67.5l2 391q-190 0 -352 -60t-162 -202z" />
<glyph unicode="&#xe3;" d="M123 0zM123 283q0 137 108.5 222t261 121t295.5 36v96q0 154 -75.5 211t-216.5 57q-61 0 -148.5 -23.5t-152.5 -58.5l-29 74q68 55 186.5 87t202.5 32q174 0 278.5 -80t104.5 -281l-2 -702h129v-58q-74 -37 -172 -36q-45 0 -66.5 12t-27.5 39.5t-6 85.5 q-115 -139 -353 -140q-88 0 -160.5 39t-114.5 109t-42 158zM186 1497q41 68 117 117t151 49q45 0 77 -20.5t71 -59.5q37 -35 61.5 -51t57.5 -16q90 0 188 102l43 -62q-39 -70 -114.5 -117.5t-153.5 -47.5q-45 0 -76 19.5t-72 57.5q-35 35 -59.5 51.5t-56.5 16.5 q-55 0 -101.5 -28.5t-89.5 -73.5zM272 311q0 -229 260 -229q74 0 145 32.5t107 67.5l2 391q-190 0 -352 -60t-162 -202z" />
<glyph unicode="&#xe4;" d="M123 0zM123 283q0 137 108.5 222t261 121t295.5 36v96q0 154 -75.5 211t-216.5 57q-61 0 -148.5 -23.5t-152.5 -58.5l-29 74q68 55 186.5 87t202.5 32q174 0 278.5 -80t104.5 -281l-2 -702h129v-58q-74 -37 -172 -36q-45 0 -66.5 12t-27.5 39.5t-6 85.5 q-115 -139 -353 -140q-88 0 -160.5 39t-114.5 109t-42 158zM233 1511q0 51 39 88t86 37q55 0 81.5 -29.5t26.5 -76.5q0 -55 -38.5 -89t-90.5 -34q-43 0 -73.5 27.5t-30.5 76.5zM272 311q0 -229 260 -229q74 0 145 32.5t107 67.5l2 391q-190 0 -352 -60t-162 -202zM688 1511 q0 51 37.5 88t85.5 37q55 0 81.5 -29.5t26.5 -76.5q0 -55 -38 -89t-89 -34q-43 0 -73.5 27.5t-30.5 76.5z" />
<glyph unicode="&#xe5;" d="M123 0zM123 283q0 137 108.5 222t261 121t295.5 36v96q0 154 -75.5 211t-216.5 57q-61 0 -148.5 -23.5t-152.5 -58.5l-29 74q68 55 186.5 87t202.5 32q174 0 278.5 -80t104.5 -281l-2 -702h129v-58q-74 -37 -172 -36q-45 0 -66.5 12t-27.5 39.5t-6 85.5 q-115 -139 -353 -140q-88 0 -160.5 39t-114.5 109t-42 158zM272 311q0 -229 260 -229q74 0 145 32.5t107 67.5l2 391q-190 0 -352 -60t-162 -202zM305 1559q0 96 71.5 165.5t172.5 69.5q102 0 172.5 -68.5t70.5 -166.5q0 -96 -70.5 -165t-172.5 -69q-100 0 -172 68.5 t-72 165.5zM405 1556q0 -59 42 -100t100 -41q59 0 101 41t42 100t-42 100.5t-101 41.5q-58 0 -100 -42t-42 -100z" />
<glyph unicode="&#xe6;" horiz-adv-x="1794" d="M121 285q0 25 2 37q12 129 130 204.5t267.5 105.5t263.5 27v99q0 156 -74.5 212t-211.5 56q-61 0 -147.5 -23.5t-155.5 -60.5l-29 76q66 53 185.5 86t205.5 33q129 0 219 -43t129 -154q74 102 181.5 157.5t242.5 55.5q172 0 269.5 -121t97.5 -334q0 -43 -5 -83t-8 -54 h-749q-2 -248 115.5 -359.5t289.5 -111.5q80 0 171.5 21.5t129.5 46.5l33 -72q-51 -49 -166.5 -80t-228.5 -31q-139 0 -240.5 56.5t-163.5 161.5q-49 -94 -168.5 -155t-269.5 -61q-86 0 -158.5 39t-114.5 110t-42 159zM274 313q0 -117 67 -174t187 -57q82 0 155 43t99 102 l2 346q-104 2 -222 -21.5t-203 -81.5t-85 -157zM936 662h596q2 23 2 63q0 246 -135 324q-47 12 -125 12q-135 0 -228.5 -99.5t-109.5 -299.5z" />
<glyph unicode="&#xe7;" horiz-adv-x="1036" d="M109 541q0 184 74.5 322t202.5 211t284 73q80 0 149.5 -13.5t104.5 -35.5v-221h-74l-43 122q-33 25 -81 36.5t-97 11.5q-102 0 -187.5 -49.5t-137.5 -147.5t-52 -242q0 -178 56.5 -293.5t144.5 -169t182 -53.5q76 0 163 19.5t130 48.5l28 -76q-49 -45 -141 -72.5 t-197 -31.5q-4 -37 -4 -64q0 -29 2 -41l2 -2q133 2 201 -54.5t68 -133.5q0 -94 -68.5 -150.5t-177.5 -62.5l-47 -2q-66 0 -102.5 10t-47.5 12l2 84q31 -6 64 -11t57 -5q74 0 118 24.5t44 102.5q0 55 -45 84.5t-133 29.5q-16 0 -31.5 -2t-21.5 -2q0 78 26 185 q-197 20 -306 174.5t-109 384.5z" />
<glyph unicode="&#xe8;" d="M104 0zM104 557q0 168 70 302t194 212t281 82q170 4 271.5 -107.5t107.5 -310.5q4 -72 -10 -174h-764q-2 -217 103.5 -344t299.5 -127q84 0 176.5 20.5t131.5 47.5l32 -72q-53 -49 -167.5 -80t-233.5 -31q-233 0 -362.5 158t-129.5 424zM258 662h608l2 59q0 248 -135 321 q-57 18 -131 19q-135 0 -230.5 -99.5t-113.5 -299.5zM344 1642l114 125l301 -381l-45 -45l-49 33q-119 78 -199.5 141.5t-121.5 126.5z" />
<glyph unicode="&#xe9;" d="M104 0zM104 557q0 168 70 302t194 212t281 82q170 4 271.5 -107.5t107.5 -310.5q4 -72 -10 -174h-764q-2 -217 103.5 -344t299.5 -127q84 0 176.5 20.5t131.5 47.5l32 -72q-53 -49 -167.5 -80t-233.5 -31q-233 0 -362.5 158t-129.5 424zM258 662h608l2 59q0 248 -135 321 q-57 18 -131 19q-135 0 -230.5 -99.5t-113.5 -299.5zM469 1386l301 381l115 -125q-78 -121 -371 -301z" />
<glyph unicode="&#xea;" d="M104 0zM104 557q0 168 70 302t194 212t281 82q170 4 271.5 -107.5t107.5 -310.5q4 -72 -10 -174h-764q-2 -217 103.5 -344t299.5 -127q84 0 176.5 20.5t131.5 47.5l32 -72q-53 -49 -167.5 -80t-233.5 -31q-233 0 -362.5 158t-129.5 424zM248 1372l277 402h159l267 -398 l-70 -41l-279 295l-290 -295zM258 662h608l2 59q0 248 -135 321q-57 18 -131 19q-135 0 -230.5 -99.5t-113.5 -299.5z" />
<glyph unicode="&#xeb;" d="M104 0zM104 557q0 168 70 302t194 212t281 82q170 4 271.5 -107.5t107.5 -310.5q4 -72 -10 -174h-764q-2 -217 103.5 -344t299.5 -127q84 0 176.5 20.5t131.5 47.5l32 -72q-53 -49 -167.5 -80t-233.5 -31q-233 0 -362.5 158t-129.5 424zM258 662h608l2 59q0 248 -135 321 q-57 18 -131 19q-135 0 -230.5 -99.5t-113.5 -299.5zM258 1511q0 51 39 88t86 37q55 0 81.5 -29.5t26.5 -76.5q0 -55 -38.5 -89t-90.5 -34q-43 0 -73.5 27.5t-30.5 76.5zM713 1511q0 51 37.5 88t85.5 37q55 0 81.5 -29.5t26.5 -76.5q0 -55 -38 -89t-89 -34q-43 0 -73.5 27.5 t-30.5 76.5z" />
<glyph unicode="&#xec;" horiz-adv-x="673" d="M96 1642l115 125l301 -381l-45 -45l-49 33q-119 78 -200 141.5t-122 126.5zM129 0v72l172 18v873l-143 55v51l250 66l36 -21v-1024l166 -18v-72h-481z" />
<glyph unicode="&#xed;" horiz-adv-x="673" d="M129 0v72l172 18v873l-143 55v51l250 66l36 -19v-1026l166 -18v-72h-481zM129 0zM221 1386l301 381l115 -125q-78 -121 -371 -301z" />
<glyph unicode="&#xee;" horiz-adv-x="673" d="M-2 1372l276 402h160l266 -398l-69 -41l-277 295l-295 -295zM129 0v72l172 18v873l-143 55v51l250 66l36 -21v-1024l166 -18v-72h-481z" />
<glyph unicode="&#xef;" horiz-adv-x="673" d="M6 0zM6 1511q0 51 39 88t86 37q55 0 81.5 -29.5t26.5 -76.5q0 -55 -38.5 -89t-90.5 -34q-43 0 -73.5 27.5t-30.5 76.5zM129 0v72l172 18v873l-143 55v51l250 66l36 -19v-1026l166 -18v-72h-481zM461 1511q0 51 37.5 88t85.5 37q55 0 81.5 -29.5t26.5 -76.5q0 -55 -38 -89 t-89 -34q-43 0 -73.5 27.5t-30.5 76.5z" />
<glyph unicode="&#xf0;" horiz-adv-x="1220" d="M104 502q0 170 69 288.5t184.5 178t254.5 59.5q84 0 181.5 -42t146.5 -103q-35 160 -125 297t-213 243l-172 -151l-88 69l168 154q-104 70 -184 96l22 92q117 -43 236 -114l108 96l64 55l92 -73l-166 -146q211 -160 323.5 -394.5t112.5 -496.5q0 -199 -69.5 -342 t-184 -218t-252.5 -77q-152 -4 -266.5 62.5t-178 188.5t-63.5 278zM270 512q0 -123 40 -225.5t120 -164t195 -61.5q98 0 172.5 71t113.5 181.5t39 229.5q0 102 -6 133q-14 57 -55 117.5t-112.5 102.5t-166.5 42q-168 0 -254 -112.5t-86 -313.5z" />
<glyph unicode="&#xf1;" horiz-adv-x="1388" d="M137 0zM137 1018v51l240 66l39 -21v-137q74 59 193.5 109.5t215.5 52.5q125 6 199 -40t106.5 -151.5t32.5 -283.5v-576l162 -16v-72h-467v72l154 18v547q0 137 -20.5 220t-72 123t-145.5 40q-78 0 -165 -31t-173 -90v-809l156 -18v-72h-451v72l142 16v866zM350 1497 q41 68 117 117t151 49q45 0 77 -20.5t71 -59.5q37 -35 61.5 -51t57.5 -16q90 0 188 102l43 -62q-39 -70 -114.5 -117.5t-153.5 -47.5q-45 0 -76 19.5t-72 57.5q-35 35 -59.5 51.5t-56.5 16.5q-55 0 -101.5 -28.5t-89.5 -73.5z" />
<glyph unicode="&#xf2;" horiz-adv-x="1218" d="M106 0zM106 571q0 174 74 306.5t196 204t259 71.5q162 0 270.5 -79t159.5 -210t51 -291q-2 -172 -70.5 -308t-185.5 -213t-256 -77q-172 0 -283.5 82t-163 217.5t-51.5 296.5zM266 592q0 -225 90 -372.5t265 -147.5q170 0 251.5 123.5t81.5 367.5q0 223 -87 361.5 t-259 138.5q-170 0 -256 -123t-86 -348zM369 1642l114 125l301 -381l-45 -45l-49 33q-119 78 -199.5 141.5t-121.5 126.5z" />
<glyph unicode="&#xf3;" horiz-adv-x="1218" d="M106 0zM106 571q0 174 74 306.5t196 204t259 71.5q162 0 270.5 -79t159.5 -210t51 -291q-2 -172 -70.5 -308t-185.5 -213t-256 -77q-172 0 -283.5 82t-163 217.5t-51.5 296.5zM266 592q0 -225 90 -372.5t265 -147.5q170 0 251.5 123.5t81.5 367.5q0 223 -87 361.5 t-259 138.5q-170 0 -256 -123t-86 -348zM491 1386l301 381l115 -125q-78 -121 -371 -301z" />
<glyph unicode="&#xf4;" horiz-adv-x="1218" d="M106 0zM106 571q0 174 74 306.5t196 204t259 71.5q162 0 270.5 -79t159.5 -210t51 -291q-2 -172 -70.5 -308t-185.5 -213t-256 -77q-172 0 -283.5 82t-163 217.5t-51.5 296.5zM266 592q0 -225 90 -372.5t265 -147.5q170 0 251.5 123.5t81.5 367.5q0 223 -87 361.5 t-259 138.5q-170 0 -256 -123t-86 -348zM270 1372l277 402h159l267 -398l-70 -41l-279 295l-290 -295z" />
<glyph unicode="&#xf5;" horiz-adv-x="1218" d="M106 0zM106 571q0 174 74 306.5t196 204t259 71.5q162 0 270.5 -79t159.5 -210t51 -291q-2 -172 -70.5 -308t-185.5 -213t-256 -77q-172 0 -283.5 82t-163 217.5t-51.5 296.5zM231 1497q41 68 117 117t151 49q45 0 77 -20.5t71 -59.5q37 -35 61.5 -51t57.5 -16 q90 0 188 102l43 -62q-39 -70 -114.5 -117.5t-153.5 -47.5q-45 0 -76 19.5t-72 57.5q-35 35 -59.5 51.5t-56.5 16.5q-55 0 -101.5 -28.5t-89.5 -73.5zM266 592q0 -225 90 -372.5t265 -147.5q170 0 251.5 123.5t81.5 367.5q0 223 -87 361.5t-259 138.5q-170 0 -256 -123 t-86 -348z" />
<glyph unicode="&#xf6;" horiz-adv-x="1218" d="M106 0zM106 571q0 174 74 306.5t196 204t259 71.5q162 0 270.5 -79t159.5 -210t51 -291q-2 -172 -70.5 -308t-185.5 -213t-256 -77q-172 0 -283.5 82t-163 217.5t-51.5 296.5zM266 592q0 -225 90 -372.5t265 -147.5q170 0 251.5 123.5t81.5 367.5q0 223 -87 361.5 t-259 138.5q-170 0 -256 -123t-86 -348zM281 1511q0 51 39 88t86 37q55 0 81.5 -29.5t26.5 -76.5q0 -55 -38.5 -89t-90.5 -34q-43 0 -73.5 27.5t-30.5 76.5zM736 1511q0 51 37.5 88t85.5 37q55 0 81.5 -29.5t26.5 -76.5q0 -55 -38 -89t-89 -34q-43 0 -73.5 27.5t-30.5 76.5z " />
<glyph unicode="&#xf7;" horiz-adv-x="1261" d="M174 735v119h913v-119h-913zM516 1157q0 51 39 86t84 35q53 0 79.5 -28.5t26.5 -73.5q0 -53 -37.5 -87t-86.5 -34q-43 0 -74 27.5t-31 74.5zM524 408q0 49 37 82.5t80 33.5q53 0 75.5 -30.5t18.5 -73.5q-2 -51 -37.5 -81t-85.5 -28q-37 4 -62.5 30t-25.5 67z" />
<glyph unicode="&#xf8;" horiz-adv-x="1218" d="M106 567q0 174 72 306.5t191.5 205t259.5 74.5q86 0 147 -20l60 167l69 -28l-57 -166q131 -63 198.5 -204.5t67.5 -319.5q0 -174 -68.5 -312.5t-185.5 -216.5t-258 -78q-70 0 -139 17l-62 -185l-75 31l63 180q-143 64 -213 211.5t-70 337.5zM266 592q0 -152 41 -272.5 t125 -186.5l307 903q-55 27 -131 27q-170 0 -256 -122t-86 -349zM502 94q56 -22 119 -22q334 0 333 491q0 145 -36.5 257t-110.5 175z" />
<glyph unicode="&#xf9;" horiz-adv-x="1288" d="M117 1030v64l223 43l31 -19v-686q0 -127 18.5 -197.5t68.5 -105.5t146 -35q94 0 184.5 45t131.5 86v776l-125 21v68l247 47l25 -17v-1046h125v-68q-31 -14 -79 -25.5t-85 -11.5q-94 0 -94 78v92q-193 -160 -391 -159q-150 0 -219.5 60t-86 155.5t-18.5 273.5v541z M358 1642l115 125l301 -381l-45 -45l-49 33q-119 78 -200 141.5t-122 126.5z" />
<glyph unicode="&#xfa;" horiz-adv-x="1288" d="M117 1030v64l223 43l31 -19v-686q0 -127 18.5 -197.5t68.5 -105.5t146 -35q94 0 184.5 45t131.5 86v776l-125 21v68l247 47l25 -17v-1046h125v-68q-31 -14 -79 -25.5t-85 -11.5q-94 0 -94 78v92q-193 -160 -391 -159q-150 0 -219.5 60t-86 155.5t-18.5 273.5v541z M483 1386l301 381l115 -125q-47 -72 -153.5 -153.5t-217.5 -147.5z" />
<glyph unicode="&#xfb;" horiz-adv-x="1288" d="M117 1030v64l223 43l31 -19v-686q0 -127 18.5 -197.5t68.5 -105.5t146 -35q94 0 184.5 45t131.5 86v776l-125 21v68l247 47l25 -17v-1046h125v-68q-31 -14 -79 -25.5t-85 -11.5q-94 0 -94 78v92q-193 -160 -391 -159q-150 0 -219.5 60t-86 155.5t-18.5 273.5v541z M260 1372l279 402h157l267 -398l-70 -41l-277 295l-292 -295z" />
<glyph unicode="&#xfc;" horiz-adv-x="1288" d="M117 0zM117 1030v64l223 43l31 -19v-686q0 -127 18.5 -197.5t68.5 -105.5t146 -35q94 0 184.5 45t131.5 86v776l-125 21v68l247 47l25 -17v-1046h125v-68q-31 -14 -79 -25.5t-85 -11.5q-94 0 -94 78v92q-193 -160 -391 -159q-150 0 -219.5 60t-86 155.5t-18.5 273.5v541z M272 1511q0 51 39 88t86 37q55 0 81.5 -29.5t26.5 -76.5q0 -55 -38.5 -89t-90.5 -34q-43 0 -73.5 27.5t-30.5 76.5zM727 1511q0 51 37.5 88t85.5 37q55 0 81.5 -29.5t26.5 -76.5q0 -55 -38 -89t-89 -34q-43 0 -73.5 27.5t-30.5 76.5z" />
<glyph unicode="&#xfd;" horiz-adv-x="1140" d="M2 0zM2 1032v86h442v-86l-157 -16l250 -701l84 -239l65 231l217 711l-164 14v86h416v-86l-119 -12q-76 -225 -139 -413.5t-113 -332.5q-82 -246 -106 -309q-86 -223 -176 -338.5t-215 -142.5q-61 6 -66 6q-20 0 -40.5 4t-30.5 8v131q40 -10 77 -10q90 0 181.5 79 t154.5 286h-35l-409 1030zM471 1386l301 381l115 -125q-78 -121 -371 -301z" />
<glyph unicode="&#xfe;" horiz-adv-x="1257" d="M39 1520v71l291 31l35 -16v-592q162 139 346 139q117 0 216 -55.5t161.5 -178t62.5 -315.5q0 -172 -70.5 -317.5t-197.5 -230.5t-291 -85q-115 0 -232 25l2 -98l3 -320l210 -18v-72h-505v72l145 20v1911zM367 141q14 -39 81.5 -58.5t163.5 -19.5q100 0 189.5 55.5 t146 172.5t56.5 291q0 233 -102.5 342.5t-252.5 109.5q-86 0 -162.5 -32.5t-119.5 -77.5v-783z" />
<glyph unicode="&#xff;" horiz-adv-x="1140" d="M2 0zM2 1032v86h442v-86l-157 -16l250 -701l84 -239l65 231l217 711l-164 14v86h416v-86l-119 -12q-76 -225 -139 -413.5t-113 -332.5q-82 -246 -106 -309q-86 -223 -176 -338.5t-215 -142.5q-61 6 -66 6q-20 0 -40.5 4t-30.5 8v131q40 -10 77 -10q90 0 181.5 79 t154.5 286h-35l-409 1030zM260 1511q0 51 39 88t86 37q55 0 81.5 -29.5t26.5 -76.5q0 -55 -38.5 -89t-90.5 -34q-43 0 -73.5 27.5t-30.5 76.5zM715 1511q0 51 37.5 88t85.5 37q55 0 81.5 -29.5t26.5 -76.5q0 -55 -38 -89t-89 -34q-43 0 -73.5 27.5t-30.5 76.5z" />
<glyph unicode="&#x152;" horiz-adv-x="2056" d="M94 756q4 254 102.5 437t263.5 278.5t365 95.5q60 -1 138 -15h933l27 -278h-88l-41 180l-577 12v-600l397 8l28 158h82v-420h-82l-28 160l-397 6v-688l606 16l94 222l76 -21l-45 -307h-990q-80 -23 -188 -29q-203 -2 -358.5 97.5t-238.5 278.5t-79 409zM264 756 q0 -190 63.5 -349t182.5 -253.5t278 -94.5q158 0 277 103v1208q-117 106 -281 107q-151 0 -269 -85t-184.5 -248t-66.5 -388z" />
<glyph unicode="&#x153;" horiz-adv-x="2027" d="M106 569q0 174 74 307.5t195 205t260 71.5q160 0 268.5 -79t161.5 -214q72 137 199 215t288 78q166 0 265.5 -111.5t103.5 -306.5q4 -72 -10 -174h-764q-2 -217 103.5 -344t301.5 -127q84 0 175.5 20.5t132.5 47.5l30 -72q-53 -49 -167.5 -80t-231.5 -31 q-162 0 -274.5 76t-167.5 217q-68 -137 -184.5 -215t-260.5 -78q-170 0 -281.5 82t-164 217.5t-52.5 294.5zM266 592q0 -225 90 -372.5t262 -147.5q170 0 253 122.5t83 368.5q0 223 -86 361.5t-260 138.5q-168 0 -255 -122t-87 -349zM1151 662h608q2 23 2 65q0 242 -135 315 q-55 18 -129 19q-137 0 -232.5 -99.5t-113.5 -299.5z" />
<glyph unicode="&#x178;" horiz-adv-x="1337" d="M12 0zM12 1473v79h461v-79l-166 -17l340 -618l53 -105l50 107l311 616l-172 17v79h434v-79l-133 -25l-420 -801v-551l207 -24v-72h-559v72l198 24v559l-485 803zM571 1780q0 53 40 91t89 38h6h6h-2q55 0 82 -31t27 -78q0 -55 -38 -91t-89 -36h-6h-6q-43 0 -76 30t-33 77z " />
<glyph unicode="&#x2c6;" horiz-adv-x="1062" d="M176 1372l277 402h159l267 -398l-70 -41l-279 295l-290 -295z" />
<glyph unicode="&#x2dc;" horiz-adv-x="864" d="M49 1497q41 68 117 117t151 49q45 0 77 -20.5t71 -59.5q37 -35 61.5 -51t57.5 -16q90 0 188 102l43 -62q-39 -70 -114.5 -117.5t-153.5 -47.5q-45 0 -76 19.5t-72 57.5q-35 35 -59.5 51.5t-56.5 16.5q-55 0 -101.5 -28.5t-89.5 -73.5z" />
<glyph unicode="&#x2000;" horiz-adv-x="960" />
<glyph unicode="&#x2001;" horiz-adv-x="1921" />
<glyph unicode="&#x2002;" horiz-adv-x="960" />
<glyph unicode="&#x2003;" horiz-adv-x="1921" />
<glyph unicode="&#x2004;" horiz-adv-x="640" />
<glyph unicode="&#x2005;" horiz-adv-x="480" />
<glyph unicode="&#x2006;" horiz-adv-x="320" />
<glyph unicode="&#x2007;" horiz-adv-x="320" />
<glyph unicode="&#x2008;" horiz-adv-x="240" />
<glyph unicode="&#x2009;" horiz-adv-x="384" />
<glyph unicode="&#x200a;" horiz-adv-x="106" />
<glyph unicode="&#x2010;" horiz-adv-x="1226" d="M174 735v119h877v-119h-877z" />
<glyph unicode="&#x2011;" horiz-adv-x="1226" d="M174 735v119h877v-119h-877z" />
<glyph unicode="&#x2012;" horiz-adv-x="1226" d="M174 735v119h877v-119h-877z" />
<glyph unicode="&#x2013;" horiz-adv-x="1378" d="M174 735v119h1030v-119h-1030z" />
<glyph unicode="&#x2014;" horiz-adv-x="2398" d="M174 735v119h2048v-119h-2048z" />
<glyph unicode="&#x2018;" horiz-adv-x="757" d="M207 1274q0 154 90 267.5t209 164.5l37 -47v-25q-74 -25 -132.5 -111.5t-58.5 -189.5q0 -84 43 -147.5t101 -71.5v-37l-82 -110q-103 24 -155 118.5t-52 188.5z" />
<glyph unicode="&#x2019;" horiz-adv-x="757" d="M197 1034v23q76 25 132 112.5t56 190.5q0 82 -43 146.5t-98 70.5v39l82 108q100 -25 152 -116.5t54 -186.5q0 -154 -90 -269.5t-211 -166.5z" />
<glyph unicode="&#x201a;" horiz-adv-x="745" d="M197 -440q74 25 131 113.5t57 193.5q0 82 -43 146.5t-98 70.5v37l82 110q70 -16 116.5 -68t68 -116.5t21.5 -122.5q0 -154 -91 -270.5t-210 -165.5l-34 49v23z" />
<glyph unicode="&#x201c;" horiz-adv-x="1273" d="M205 1270q0 156 90 271.5t211 164.5l35 -47v-25q-74 -25 -132.5 -112.5t-58.5 -188.5q0 -82 43 -146.5t101 -72.5v-37l-82 -110q-103 24 -155 116.5t-52 186.5zM723 1274q0 154 90 267.5t211 164.5l35 -47v-25q-74 -25 -131.5 -111.5t-57.5 -189.5q0 -84 42 -147.5 t100 -71.5v-37l-82 -110q-103 24 -155 118.5t-52 188.5z" />
<glyph unicode="&#x201d;" horiz-adv-x="1300" d="M215 1034v25q74 25 131 111.5t57 189.5q0 82 -43 146.5t-98 72.5v37l82 108q102 -25 154.5 -118t52.5 -189q0 -152 -90 -266.5t-211 -165.5zM760 1034v25q74 25 131 111.5t57 189.5q0 84 -42 147.5t-99 71.5v37l82 108q104 -25 155.5 -118t51.5 -189q0 -152 -90.5 -266.5 t-210.5 -165.5z" />
<glyph unicode="&#x201e;" horiz-adv-x="1298" d="M231 -434q74 25 131.5 113t57.5 190q0 82 -43 146.5t-101 72.5v37l82 108q102 -25 154.5 -116.5t54.5 -186.5q0 -154 -90 -269.5t-211 -166.5l-35 49v23zM780 -434q74 25 131.5 113t57.5 190q0 84 -43 147.5t-101 71.5v37l84 108q102 -25 153.5 -115.5t53.5 -187.5 q0 -154 -90 -269.5t-211 -166.5l-35 49v23z" />
<glyph unicode="&#x2022;" horiz-adv-x="833" d="M250 715q0 80 51 135t123 55q70 0 118 -53t46 -127q-6 -74 -58.5 -126t-119.5 -52q-66 0 -113 49t-47 119z" />
<glyph unicode="&#x2026;" horiz-adv-x="2086" d="M219 82q0 51 38 85t85 34q53 0 80 -29t27 -72q0 -53 -38 -88t-87 -35q-43 0 -74 29t-31 76zM915 82q0 49 38 84t85 35q52 0 78.5 -29t26.5 -72q0 -53 -38 -88t-87 -35q-41 0 -72 29t-31 76zM1610 82q0 49 39 84t84 35q51 0 77.5 -29t26.5 -72q0 -53 -37 -88t-86 -35 q-43 0 -73.5 29t-30.5 76z" />
<glyph unicode="&#x202f;" horiz-adv-x="384" />
<glyph unicode="&#x2039;" horiz-adv-x="1179" d="M248 549v127l637 391l41 -72l-537 -381l537 -368l-41 -74z" />
<glyph unicode="&#x203a;" horiz-adv-x="1179" d="M254 242l537 381l-537 368l43 76l635 -375v-131l-635 -389z" />
<glyph unicode="&#x205f;" horiz-adv-x="480" />
<glyph unicode="&#x20ac;" horiz-adv-x="1355" d="M-53 571v109h196v47q0 96 13 184h-179v109h199q66 258 238 401.5t417 143.5q121 0 215.5 -20.5t194.5 -51.5l-14 -266h-68l-45 164q-113 78 -338 77q-176 0 -293.5 -114.5t-160.5 -333.5h606v-109h-621q-8 -57 -8 -129q0 -66 4 -102h596v-109h-588q31 -238 142.5 -376 t324.5 -138q127 0 210 24.5t155 82.5q14 98 31 164h69v-265q-14 -2 -90 -24q-94 -31 -187.5 -49.5t-226.5 -18.5q-258 0 -406.5 161t-180.5 439h-205z" />
<glyph unicode="&#x2122;" horiz-adv-x="2185" d="M168 1325l18 227h668l-2 -227l-53 -4l-23 143l-186 11v-617l135 -14v-68h-412v68l127 14v615l-176 -11l-41 -137h-55zM954 776v68l109 14l33 615l-109 8v71h324l176 -471l43 -145l201 616h282v-71l-102 -8l61 -613l99 -16v-68h-328v68l96 14l-35 393l-12 222l-25 -82 l-211 -623h-100l-213 555l-59 156l-6 -166l-23 -455l100 -14v-68h-301z" />
<glyph unicode="&#x25fc;" horiz-adv-x="1116" d="M0 0v1116h1116v-1116h-1116z" />
<glyph unicode="&#xfb03;" horiz-adv-x="2324" d="M98 997v66l230 49v90q0 143 62.5 252t154.5 168t176 59q102 0 135 -16v-141q-16 10 -62 19t-110 9q-63 0 -107.5 -19.5t-71 -81.5t-26.5 -181v-160h312v-113h-312v-909l232 -16v-72h-592v72l209 18v907h-230zM924 997v66l227 49v90q0 143 62.5 252t154.5 168t176 59 q102 0 135 -16v-141q-16 10 -61 19t-113 9q-63 0 -107 -19.5t-71 -81.5t-27 -181v-160h316v-113h-316v-909l236 -16v-72h-594v72l209 18v907h-227zM1778 0v72l172 18v873l-142 55v51l248 66l37 -19v-1026l166 -18v-72h-481zM1878 1501q0 51 39 88t84 37q51 0 77.5 -29.5 t26.5 -74.5q0 -53 -36.5 -88t-86.5 -35q-43 0 -73.5 28.5t-30.5 73.5z" />
<glyph unicode="&#xfb04;" horiz-adv-x="2342" d="M98 997v66l230 49v90q0 143 62.5 252t154.5 168t176 59q102 0 135 -16v-141q-16 10 -62 19t-110 9q-63 0 -107.5 -19.5t-71 -81.5t-26.5 -181v-160h312v-113h-312v-909l232 -16v-72h-592v72l209 18v907h-230zM924 997v66l227 49v90q0 143 62.5 252t154.5 168t176 59 q102 0 135 -16v-141q-16 10 -61 19t-113 9q-63 0 -107 -19.5t-71 -81.5t-27 -181v-160h316v-113h-316v-909l236 -16v-72h-594v72l209 18v907h-227zM1776 0v72l174 18v1395l-164 28v74l280 35l35 -23v-1511l176 -16v-72h-501z" />
</font>
</defs>
</svg>
